<svg xmlns="http://www.w3.org/2000/svg" xmlns:xlink="http://www.w3.org/1999/xlink" width="104.742" height="105.695" viewBox="0 0 104.742 105.695"><defs><style>.a{fill:none;}.b{fill:#0b89bd;}.c{clip-path:url(#a);}.d{fill:#f5bf00;}</style><clipPath id="a"><ellipse class="a" cx="52.371" cy="52.848" rx="52.371" ry="52.848" transform="translate(2730.389 163.664)"/></clipPath></defs><g transform="translate(30.471 -2274.27)"><g transform="translate(-2760.861 2110.605)"><g class="c"><ellipse class="d" cx="1.672" cy="1.687" rx="1.672" ry="1.687" transform="translate(2786.26 215.821)"/><ellipse class="d" cx="1.672" cy="1.687" rx="1.672" ry="1.687" transform="translate(2796.312 215.821)"/><ellipse class="d" cx="1.672" cy="1.687" rx="1.672" ry="1.687" transform="translate(2806.363 215.821)"/><ellipse class="d" cx="1.672" cy="1.687" rx="1.672" ry="1.687" transform="translate(2816.415 215.821)"/><ellipse class="d" cx="1.672" cy="1.687" rx="1.672" ry="1.687" transform="translate(2826.466 215.821)"/><ellipse class="d" cx="1.672" cy="1.687" rx="1.672" ry="1.687" transform="translate(2836.518 215.821)"/><ellipse class="d" cx="1.672" cy="1.687" rx="1.672" ry="1.687" transform="translate(2786.26 227.047)"/><ellipse class="d" cx="1.672" cy="1.687" rx="1.672" ry="1.687" transform="translate(2796.312 227.047)"/><ellipse class="d" cx="1.672" cy="1.687" rx="1.672" ry="1.687" transform="translate(2806.363 227.047)"/><ellipse class="d" cx="1.672" cy="1.687" rx="1.672" ry="1.687" transform="translate(2816.415 227.047)"/><ellipse class="d" cx="1.672" cy="1.687" rx="1.672" ry="1.687" transform="translate(2826.466 227.047)"/><ellipse class="d" cx="1.672" cy="1.687" rx="1.672" ry="1.687" transform="translate(2836.518 227.047)"/><ellipse class="d" cx="1.672" cy="1.687" rx="1.672" ry="1.687" transform="translate(2786.26 239.098)"/><ellipse class="d" cx="1.672" cy="1.687" rx="1.672" ry="1.687" transform="translate(2796.312 239.098)"/><ellipse class="d" cx="1.672" cy="1.687" rx="1.672" ry="1.687" transform="translate(2806.363 239.098)"/><ellipse class="d" cx="1.672" cy="1.687" rx="1.672" ry="1.687" transform="translate(2816.415 239.098)"/><ellipse class="d" cx="1.672" cy="1.687" rx="1.672" ry="1.687" transform="translate(2826.466 239.098)"/><ellipse class="d" cx="1.672" cy="1.687" rx="1.672" ry="1.687" transform="translate(2836.518 239.098)"/><ellipse class="d" cx="1.672" cy="1.687" rx="1.672" ry="1.687" transform="translate(2786.26 250.12)"/><ellipse class="d" cx="1.672" cy="1.687" rx="1.672" ry="1.687" transform="translate(2796.312 250.12)"/><ellipse class="d" cx="1.672" cy="1.687" rx="1.672" ry="1.687" transform="translate(2806.363 250.12)"/><ellipse class="d" cx="1.672" cy="1.687" rx="1.672" ry="1.687" transform="translate(2816.415 250.12)"/><ellipse class="d" cx="1.672" cy="1.687" rx="1.672" ry="1.687" transform="translate(2826.466 250.12)"/><ellipse class="d" cx="1.672" cy="1.687" rx="1.672" ry="1.687" transform="translate(2836.518 250.12)"/><ellipse class="d" cx="1.672" cy="1.687" rx="1.672" ry="1.687" transform="translate(2786.26 261.071)"/><ellipse class="d" cx="1.672" cy="1.687" rx="1.672" ry="1.687" transform="translate(2796.312 261.071)"/><ellipse class="d" cx="1.672" cy="1.687" rx="1.672" ry="1.687" transform="translate(2806.363 261.071)"/><ellipse class="d" cx="1.672" cy="1.687" rx="1.672" ry="1.687" transform="translate(2816.415 261.071)"/><ellipse class="d" cx="1.672" cy="1.687" rx="1.672" ry="1.687" transform="translate(2826.466 261.071)"/><ellipse class="d" cx="1.672" cy="1.687" rx="1.672" ry="1.687" transform="translate(2836.518 261.071)"/><ellipse class="d" cx="1.672" cy="1.687" rx="1.672" ry="1.687" transform="translate(2786.26 272.021)"/><ellipse class="d" cx="1.672" cy="1.687" rx="1.672" ry="1.687" transform="translate(2796.312 272.021)"/><ellipse class="d" cx="1.672" cy="1.687" rx="1.672" ry="1.687" transform="translate(2806.363 272.021)"/><ellipse class="d" cx="1.672" cy="1.687" rx="1.672" ry="1.687" transform="translate(2816.415 272.021)"/><ellipse class="d" cx="1.672" cy="1.687" rx="1.672" ry="1.687" transform="translate(2826.466 272.021)"/><ellipse class="d" cx="1.672" cy="1.687" rx="1.672" ry="1.687" transform="translate(2836.518 272.021)"/><ellipse class="d" cx="1.672" cy="1.687" rx="1.672" ry="1.687" transform="translate(2724.861 215.821)"/><ellipse class="d" cx="1.672" cy="1.687" rx="1.672" ry="1.687" transform="translate(2734.912 215.821)"/><ellipse class="d" cx="1.672" cy="1.687" rx="1.672" ry="1.687" transform="translate(2744.964 215.821)"/><ellipse class="d" cx="1.672" cy="1.687" rx="1.672" ry="1.687" transform="translate(2755.015 215.821)"/><ellipse class="d" cx="1.672" cy="1.687" rx="1.672" ry="1.687" transform="translate(2765.067 215.821)"/><ellipse class="d" cx="1.672" cy="1.687" rx="1.672" ry="1.687" transform="translate(2775.118 215.821)"/><ellipse class="d" cx="1.672" cy="1.687" rx="1.672" ry="1.687" transform="translate(2724.861 227.047)"/><ellipse class="d" cx="1.672" cy="1.687" rx="1.672" ry="1.687" transform="translate(2734.912 227.047)"/><ellipse class="d" cx="1.672" cy="1.687" rx="1.672" ry="1.687" transform="translate(2744.964 227.047)"/><ellipse class="d" cx="1.672" cy="1.687" rx="1.672" ry="1.687" transform="translate(2755.015 227.047)"/><ellipse class="d" cx="1.672" cy="1.687" rx="1.672" ry="1.687" transform="translate(2765.067 227.047)"/><ellipse class="d" cx="1.672" cy="1.687" rx="1.672" ry="1.687" transform="translate(2775.118 227.047)"/><ellipse class="d" cx="1.672" cy="1.687" rx="1.672" ry="1.687" transform="translate(2724.861 239.098)"/><ellipse class="d" cx="1.672" cy="1.687" rx="1.672" ry="1.687" transform="translate(2734.912 239.098)"/><ellipse class="d" cx="1.672" cy="1.687" rx="1.672" ry="1.687" transform="translate(2744.964 239.098)"/><ellipse class="d" cx="1.672" cy="1.687" rx="1.672" ry="1.687" transform="translate(2755.015 239.098)"/><ellipse class="d" cx="1.672" cy="1.687" rx="1.672" ry="1.687" transform="translate(2765.067 239.098)"/><ellipse class="d" cx="1.672" cy="1.687" rx="1.672" ry="1.687" transform="translate(2775.118 239.098)"/><ellipse class="d" cx="1.672" cy="1.687" rx="1.672" ry="1.687" transform="translate(2724.861 250.12)"/><ellipse class="d" cx="1.672" cy="1.687" rx="1.672" ry="1.687" transform="translate(2734.912 250.12)"/><ellipse class="d" cx="1.672" cy="1.687" rx="1.672" ry="1.687" transform="translate(2744.964 250.12)"/><ellipse class="d" cx="1.672" cy="1.687" rx="1.672" ry="1.687" transform="translate(2755.015 250.12)"/><ellipse class="d" cx="1.672" cy="1.687" rx="1.672" ry="1.687" transform="translate(2765.067 250.12)"/><ellipse class="d" cx="1.672" cy="1.687" rx="1.672" ry="1.687" transform="translate(2775.118 250.12)"/><ellipse class="d" cx="1.672" cy="1.687" rx="1.672" ry="1.687" transform="translate(2724.861 261.071)"/><ellipse class="d" cx="1.672" cy="1.687" rx="1.672" ry="1.687" transform="translate(2734.912 261.071)"/><ellipse class="d" cx="1.672" cy="1.687" rx="1.672" ry="1.687" transform="translate(2744.964 261.071)"/><ellipse class="d" cx="1.672" cy="1.687" rx="1.672" ry="1.687" transform="translate(2755.015 261.071)"/><ellipse class="d" cx="1.672" cy="1.687" rx="1.672" ry="1.687" transform="translate(2765.067 261.071)"/><ellipse class="d" cx="1.672" cy="1.687" rx="1.672" ry="1.687" transform="translate(2775.118 261.071)"/><ellipse class="d" cx="1.672" cy="1.687" rx="1.672" ry="1.687" transform="translate(2724.861 272.021)"/><ellipse class="d" cx="1.672" cy="1.687" rx="1.672" ry="1.687" transform="translate(2734.912 272.021)"/><ellipse class="d" cx="1.672" cy="1.687" rx="1.672" ry="1.687" transform="translate(2744.964 272.021)"/><ellipse class="d" cx="1.672" cy="1.687" rx="1.672" ry="1.687" transform="translate(2755.015 272.021)"/><ellipse class="d" cx="1.672" cy="1.687" rx="1.672" ry="1.687" transform="translate(2765.067 272.021)"/><ellipse class="d" cx="1.672" cy="1.687" rx="1.672" ry="1.687" transform="translate(2775.118 272.021)"/><ellipse class="d" cx="1.672" cy="1.687" rx="1.672" ry="1.687" transform="translate(2786.26 148.395)"/><ellipse class="d" cx="1.672" cy="1.687" rx="1.672" ry="1.687" transform="translate(2796.312 148.395)"/><ellipse class="d" cx="1.672" cy="1.687" rx="1.672" ry="1.687" transform="translate(2806.363 148.395)"/><ellipse class="d" cx="1.672" cy="1.687" rx="1.672" ry="1.687" transform="translate(2816.415 148.395)"/><ellipse class="d" cx="1.672" cy="1.687" rx="1.672" ry="1.687" transform="translate(2826.466 148.395)"/><ellipse class="d" cx="1.672" cy="1.687" rx="1.672" ry="1.687" transform="translate(2836.518 148.395)"/><ellipse class="d" cx="1.672" cy="1.687" rx="1.672" ry="1.687" transform="translate(2786.26 159.621)"/><ellipse class="d" cx="1.672" cy="1.687" rx="1.672" ry="1.687" transform="translate(2796.312 159.621)"/><ellipse class="d" cx="1.672" cy="1.687" rx="1.672" ry="1.687" transform="translate(2806.363 159.621)"/><ellipse class="d" cx="1.672" cy="1.687" rx="1.672" ry="1.687" transform="translate(2816.415 159.621)"/><ellipse class="d" cx="1.672" cy="1.687" rx="1.672" ry="1.687" transform="translate(2826.466 159.621)"/><ellipse class="d" cx="1.672" cy="1.687" rx="1.672" ry="1.687" transform="translate(2836.518 159.621)"/><ellipse class="d" cx="1.672" cy="1.687" rx="1.672" ry="1.687" transform="translate(2786.26 171.672)"/><ellipse class="d" cx="1.672" cy="1.687" rx="1.672" ry="1.687" transform="translate(2796.312 171.672)"/><ellipse class="d" cx="1.672" cy="1.687" rx="1.672" ry="1.687" transform="translate(2806.363 171.672)"/><ellipse class="d" cx="1.672" cy="1.687" rx="1.672" ry="1.687" transform="translate(2816.415 171.672)"/><ellipse class="d" cx="1.672" cy="1.687" rx="1.672" ry="1.687" transform="translate(2826.466 171.672)"/><ellipse class="d" cx="1.672" cy="1.687" rx="1.672" ry="1.687" transform="translate(2836.518 171.672)"/><ellipse class="d" cx="1.672" cy="1.687" rx="1.672" ry="1.687" transform="translate(2786.26 182.694)"/><ellipse class="d" cx="1.672" cy="1.687" rx="1.672" ry="1.687" transform="translate(2796.312 182.694)"/><ellipse class="d" cx="1.672" cy="1.687" rx="1.672" ry="1.687" transform="translate(2806.363 182.694)"/><ellipse class="d" cx="1.672" cy="1.687" rx="1.672" ry="1.687" transform="translate(2816.415 182.694)"/><ellipse class="d" cx="1.672" cy="1.687" rx="1.672" ry="1.687" transform="translate(2826.466 182.694)"/><ellipse class="d" cx="1.672" cy="1.687" rx="1.672" ry="1.687" transform="translate(2836.518 182.694)"/><ellipse class="d" cx="1.672" cy="1.687" rx="1.672" ry="1.687" transform="translate(2786.26 193.644)"/><ellipse class="d" cx="1.672" cy="1.687" rx="1.672" ry="1.687" transform="translate(2796.312 193.644)"/><ellipse class="d" cx="1.672" cy="1.687" rx="1.672" ry="1.687" transform="translate(2806.363 193.644)"/><ellipse class="d" cx="1.672" cy="1.687" rx="1.672" ry="1.687" transform="translate(2816.415 193.644)"/><ellipse class="d" cx="1.672" cy="1.687" rx="1.672" ry="1.687" transform="translate(2826.466 193.644)"/><ellipse class="d" cx="1.672" cy="1.687" rx="1.672" ry="1.687" transform="translate(2836.518 193.644)"/><ellipse class="d" cx="1.672" cy="1.687" rx="1.672" ry="1.687" transform="translate(2786.26 204.595)"/><ellipse class="d" cx="1.672" cy="1.687" rx="1.672" ry="1.687" transform="translate(2796.312 204.595)"/><ellipse class="d" cx="1.672" cy="1.687" rx="1.672" ry="1.687" transform="translate(2806.363 204.595)"/><ellipse class="d" cx="1.702" cy="1.718" rx="1.702" ry="1.718" transform="translate(2816.415 204.595)"/><ellipse class="d" cx="1.672" cy="1.687" rx="1.672" ry="1.687" transform="translate(2826.466 204.595)"/><ellipse class="d" cx="1.672" cy="1.687" rx="1.672" ry="1.687" transform="translate(2836.518 204.595)"/><ellipse class="d" cx="1.672" cy="1.687" rx="1.672" ry="1.687" transform="translate(2724.861 148.395)"/><ellipse class="d" cx="1.672" cy="1.687" rx="1.672" ry="1.687" transform="translate(2734.912 148.395)"/><ellipse class="d" cx="1.672" cy="1.687" rx="1.672" ry="1.687" transform="translate(2744.964 148.395)"/><ellipse class="d" cx="1.672" cy="1.687" rx="1.672" ry="1.687" transform="translate(2755.015 148.395)"/><ellipse class="d" cx="1.672" cy="1.687" rx="1.672" ry="1.687" transform="translate(2765.067 148.395)"/><ellipse class="d" cx="1.672" cy="1.687" rx="1.672" ry="1.687" transform="translate(2775.118 148.395)"/><ellipse class="d" cx="1.672" cy="1.687" rx="1.672" ry="1.687" transform="translate(2724.861 159.621)"/><ellipse class="d" cx="1.672" cy="1.687" rx="1.672" ry="1.687" transform="translate(2734.912 159.621)"/><ellipse class="d" cx="1.672" cy="1.687" rx="1.672" ry="1.687" transform="translate(2744.964 159.621)"/><ellipse class="d" cx="1.672" cy="1.687" rx="1.672" ry="1.687" transform="translate(2755.015 159.621)"/><ellipse class="d" cx="1.672" cy="1.687" rx="1.672" ry="1.687" transform="translate(2765.067 159.621)"/><ellipse class="d" cx="1.672" cy="1.687" rx="1.672" ry="1.687" transform="translate(2775.118 159.621)"/><ellipse class="d" cx="1.672" cy="1.687" rx="1.672" ry="1.687" transform="translate(2724.861 171.672)"/><ellipse class="d" cx="1.672" cy="1.687" rx="1.672" ry="1.687" transform="translate(2734.912 171.672)"/><ellipse class="d" cx="1.672" cy="1.687" rx="1.672" ry="1.687" transform="translate(2744.964 171.672)"/><ellipse class="d" cx="1.672" cy="1.687" rx="1.672" ry="1.687" transform="translate(2755.015 171.672)"/><ellipse class="d" cx="1.672" cy="1.687" rx="1.672" ry="1.687" transform="translate(2765.067 171.672)"/><ellipse class="d" cx="1.672" cy="1.687" rx="1.672" ry="1.687" transform="translate(2775.118 171.672)"/><ellipse class="d" cx="1.672" cy="1.687" rx="1.672" ry="1.687" transform="translate(2724.861 182.694)"/><ellipse class="d" cx="1.672" cy="1.687" rx="1.672" ry="1.687" transform="translate(2734.912 182.694)"/><ellipse class="d" cx="1.672" cy="1.687" rx="1.672" ry="1.687" transform="translate(2744.964 182.694)"/><ellipse class="d" cx="1.672" cy="1.687" rx="1.672" ry="1.687" transform="translate(2755.015 182.694)"/><ellipse class="d" cx="1.672" cy="1.687" rx="1.672" ry="1.687" transform="translate(2765.067 182.694)"/><ellipse class="d" cx="1.672" cy="1.687" rx="1.672" ry="1.687" transform="translate(2775.118 182.694)"/><ellipse class="d" cx="1.672" cy="1.687" rx="1.672" ry="1.687" transform="translate(2724.861 193.644)"/><ellipse class="d" cx="1.672" cy="1.687" rx="1.672" ry="1.687" transform="translate(2734.912 193.644)"/><ellipse class="d" cx="1.672" cy="1.687" rx="1.672" ry="1.687" transform="translate(2744.964 193.644)"/><ellipse class="d" cx="1.672" cy="1.687" rx="1.672" ry="1.687" transform="translate(2755.015 193.644)"/><ellipse class="d" cx="1.672" cy="1.687" rx="1.672" ry="1.687" transform="translate(2765.067 193.644)"/><ellipse class="d" cx="1.672" cy="1.687" rx="1.672" ry="1.687" transform="translate(2775.118 193.644)"/><ellipse class="d" cx="1.672" cy="1.687" rx="1.672" ry="1.687" transform="translate(2724.861 204.595)"/><ellipse class="d" cx="1.672" cy="1.687" rx="1.672" ry="1.687" transform="translate(2734.912 204.595)"/><ellipse class="d" cx="1.672" cy="1.687" rx="1.672" ry="1.687" transform="translate(2744.964 204.595)"/><ellipse class="d" cx="1.672" cy="1.687" rx="1.672" ry="1.687" transform="translate(2755.015 204.595)"/><ellipse class="d" cx="1.672" cy="1.687" rx="1.672" ry="1.687" transform="translate(2765.067 204.595)"/><ellipse class="d" cx="1.672" cy="1.687" rx="1.672" ry="1.687" transform="translate(2775.118 204.595)"/></g></g><path class="b" d="M35.451,2373.363a1.671,1.671,0,1,1,1.671,1.687A1.68,1.68,0,0,1,35.451,2373.363Zm-10.051,0a1.671,1.671,0,1,1,1.671,1.687A1.68,1.68,0,0,1,25.4,2373.363Zm-11.142,0a1.671,1.671,0,1,1,1.671,1.687A1.68,1.68,0,0,1,14.258,2373.363Zm-10.052,0a1.672,1.672,0,1,1,1.672,1.687A1.68,1.68,0,0,1,4.206,2373.363Zm41.3,0a1.669,1.669,0,0,1,3.144-.8q-1.435.861-2.927,1.633A1.7,1.7,0,0,1,45.5,2373.363Zm-50.908-1.141a1.659,1.659,0,0,1,1.231-.546,1.68,1.68,0,0,1,1.671,1.688,1.716,1.716,0,0,1-.071.489Q-4.016,2373.081-5.405,2372.222Zm60.959-9.81a1.672,1.672,0,1,1,1.672,1.688A1.68,1.68,0,0,1,55.553,2362.412Zm-10.051,0a1.672,1.672,0,1,1,1.671,1.688A1.679,1.679,0,0,1,45.5,2362.412Zm-10.051,0a1.671,1.671,0,1,1,1.671,1.688A1.679,1.679,0,0,1,35.451,2362.412Zm-10.051,0a1.671,1.671,0,1,1,1.671,1.688A1.679,1.679,0,0,1,25.4,2362.412Zm-11.142,0a1.671,1.671,0,1,1,1.671,1.688A1.679,1.679,0,0,1,14.258,2362.412Zm-10.052,0a1.672,1.672,0,1,1,1.672,1.688A1.68,1.68,0,0,1,4.206,2362.412Zm-10.051,0a1.679,1.679,0,0,1,1.671-1.687,1.679,1.679,0,0,1,1.671,1.687,1.68,1.68,0,0,1-1.671,1.688A1.68,1.68,0,0,1-5.845,2362.412Zm-10.051,0a1.679,1.679,0,0,1,1.671-1.687,1.679,1.679,0,0,1,1.671,1.687,1.68,1.68,0,0,1-1.671,1.688A1.68,1.68,0,0,1-15.9,2362.412Zm81.5-11.022a1.669,1.669,0,0,1,3.186-.714q-.6,1.21-1.253,2.381a1.671,1.671,0,0,1-1.933-1.667Zm-10.052,0a1.672,1.672,0,1,1,1.672,1.688A1.68,1.68,0,0,1,55.553,2351.39Zm-10.051,0a1.672,1.672,0,1,1,1.671,1.688A1.679,1.679,0,0,1,45.5,2351.39Zm-10.051,0a1.671,1.671,0,1,1,1.671,1.688A1.679,1.679,0,0,1,35.451,2351.39Zm-10.051,0a1.671,1.671,0,1,1,1.671,1.688A1.679,1.679,0,0,1,25.4,2351.39Zm-11.142,0a1.671,1.671,0,1,1,1.671,1.688A1.679,1.679,0,0,1,14.258,2351.39Zm-10.052,0a1.672,1.672,0,1,1,1.672,1.688A1.68,1.68,0,0,1,4.206,2351.39Zm-10.051,0a1.679,1.679,0,0,1,1.671-1.687A1.679,1.679,0,0,1-2.5,2351.39a1.679,1.679,0,0,1-1.671,1.688A1.679,1.679,0,0,1-5.845,2351.39Zm-10.051,0a1.679,1.679,0,0,1,1.671-1.687,1.679,1.679,0,0,1,1.671,1.687,1.679,1.679,0,0,1-1.671,1.688A1.679,1.679,0,0,1-15.9,2351.39Zm-9.4-1.337a1.656,1.656,0,0,1,1.019-.349,1.679,1.679,0,0,1,1.671,1.687A1.687,1.687,0,0,1-23.772,2353Q-24.578,2351.553-25.3,2350.052Zm90.9-10.714a1.671,1.671,0,1,1,1.671,1.688A1.679,1.679,0,0,1,65.605,2339.339Zm-10.052,0a1.672,1.672,0,1,1,1.672,1.688A1.68,1.68,0,0,1,55.553,2339.339Zm-10.051,0a1.672,1.672,0,1,1,1.671,1.688A1.679,1.679,0,0,1,45.5,2339.339Zm-10.051,0a1.671,1.671,0,1,1,1.671,1.688A1.679,1.679,0,0,1,35.451,2339.339Zm-10.051,0a1.671,1.671,0,1,1,1.671,1.688A1.679,1.679,0,0,1,25.4,2339.339Zm-11.142,0a1.671,1.671,0,1,1,1.671,1.688A1.679,1.679,0,0,1,14.258,2339.339Zm-10.052,0a1.672,1.672,0,1,1,1.672,1.688A1.68,1.68,0,0,1,4.206,2339.339Zm-10.051,0a1.679,1.679,0,0,1,1.671-1.687,1.679,1.679,0,0,1,1.671,1.687,1.679,1.679,0,0,1-1.671,1.688A1.679,1.679,0,0,1-5.845,2339.339Zm-10.051,0a1.679,1.679,0,0,1,1.671-1.687,1.679,1.679,0,0,1,1.671,1.687,1.679,1.679,0,0,1-1.671,1.688A1.679,1.679,0,0,1-15.9,2339.339Zm-10.052,0a1.68,1.68,0,0,1,1.672-1.687,1.679,1.679,0,0,1,1.671,1.687,1.68,1.68,0,0,1-1.671,1.688A1.68,1.68,0,0,1-25.949,2339.339Zm91.554-11.226a1.671,1.671,0,1,1,1.671,1.687A1.679,1.679,0,0,1,65.605,2328.113Zm-10.052,0a1.672,1.672,0,1,1,1.672,1.687A1.68,1.68,0,0,1,55.553,2328.113Zm-10.051,0a1.672,1.672,0,1,1,1.671,1.687A1.679,1.679,0,0,1,45.5,2328.113Zm-10.051,0a1.671,1.671,0,1,1,1.671,1.687A1.679,1.679,0,0,1,35.451,2328.113Zm-10.051,0a1.671,1.671,0,1,1,1.671,1.687A1.679,1.679,0,0,1,25.4,2328.113Zm-11.142,0a1.671,1.671,0,1,1,1.671,1.687A1.679,1.679,0,0,1,14.258,2328.113Zm-10.052,0a1.672,1.672,0,1,1,1.672,1.687A1.68,1.68,0,0,1,4.206,2328.113Zm-10.051,0a1.679,1.679,0,0,1,1.671-1.687,1.679,1.679,0,0,1,1.671,1.687,1.679,1.679,0,0,1-1.671,1.687A1.679,1.679,0,0,1-5.845,2328.113Zm-10.051,0a1.679,1.679,0,0,1,1.671-1.687,1.679,1.679,0,0,1,1.671,1.687,1.679,1.679,0,0,1-1.671,1.687A1.679,1.679,0,0,1-15.9,2328.113Zm-10.052,0a1.68,1.68,0,0,1,1.672-1.687,1.679,1.679,0,0,1,1.671,1.687,1.679,1.679,0,0,1-1.671,1.687A1.68,1.68,0,0,1-25.949,2328.113Zm81.5-11.2a1.7,1.7,0,1,1,1.7,1.717A1.71,1.71,0,0,1,55.553,2316.918Zm10.052-.031a1.671,1.671,0,1,1,1.671,1.687A1.679,1.679,0,0,1,65.605,2316.887Zm-20.1,0a1.672,1.672,0,1,1,1.671,1.687A1.679,1.679,0,0,1,45.5,2316.887Zm-10.051,0a1.671,1.671,0,1,1,1.671,1.687A1.679,1.679,0,0,1,35.451,2316.887Zm-10.051,0a1.671,1.671,0,1,1,1.671,1.687A1.679,1.679,0,0,1,25.4,2316.887Zm-11.142,0a1.671,1.671,0,1,1,1.671,1.687A1.679,1.679,0,0,1,14.258,2316.887Zm-10.052,0a1.672,1.672,0,1,1,1.672,1.687A1.68,1.68,0,0,1,4.206,2316.887Zm-10.051,0a1.679,1.679,0,0,1,1.671-1.687,1.679,1.679,0,0,1,1.671,1.687,1.679,1.679,0,0,1-1.671,1.687A1.679,1.679,0,0,1-5.845,2316.887Zm-10.051,0a1.679,1.679,0,0,1,1.671-1.687,1.679,1.679,0,0,1,1.671,1.687,1.679,1.679,0,0,1-1.671,1.687A1.679,1.679,0,0,1-15.9,2316.887Zm-10.052,0a1.68,1.68,0,0,1,1.672-1.687,1.679,1.679,0,0,1,1.671,1.687,1.679,1.679,0,0,1-1.671,1.687A1.68,1.68,0,0,1-25.949,2316.887Zm91.554-10.95a1.671,1.671,0,1,1,1.671,1.687A1.679,1.679,0,0,1,65.605,2305.937Zm-10.052,0a1.672,1.672,0,1,1,1.672,1.687A1.68,1.68,0,0,1,55.553,2305.937Zm-10.051,0a1.672,1.672,0,1,1,1.671,1.687A1.68,1.68,0,0,1,45.5,2305.937Zm-10.051,0a1.671,1.671,0,1,1,1.671,1.687A1.679,1.679,0,0,1,35.451,2305.937Zm-10.051,0a1.671,1.671,0,1,1,1.671,1.687A1.679,1.679,0,0,1,25.4,2305.937Zm-11.142,0a1.671,1.671,0,1,1,1.671,1.687A1.679,1.679,0,0,1,14.258,2305.937Zm-10.052,0a1.672,1.672,0,1,1,1.672,1.687A1.68,1.68,0,0,1,4.206,2305.937Zm-10.051,0a1.679,1.679,0,0,1,1.671-1.687,1.679,1.679,0,0,1,1.671,1.688,1.679,1.679,0,0,1-1.671,1.687A1.679,1.679,0,0,1-5.845,2305.937Zm-10.051,0a1.679,1.679,0,0,1,1.671-1.687,1.679,1.679,0,0,1,1.671,1.688,1.679,1.679,0,0,1-1.671,1.687A1.679,1.679,0,0,1-15.9,2305.937Zm-10.052,0a1.7,1.7,0,0,1,.077-.51l.166-.367a1.67,1.67,0,0,1,1.429-.81,1.68,1.68,0,0,1,1.671,1.688,1.679,1.679,0,0,1-1.671,1.687A1.68,1.68,0,0,1-25.949,2305.937Zm81.5-10.951a1.672,1.672,0,1,1,1.672,1.688A1.68,1.68,0,0,1,55.553,2294.986Zm-10.051,0a1.672,1.672,0,1,1,1.671,1.688A1.679,1.679,0,0,1,45.5,2294.986Zm-10.051,0a1.671,1.671,0,1,1,1.671,1.688A1.679,1.679,0,0,1,35.451,2294.986Zm-10.051,0a1.671,1.671,0,1,1,1.671,1.688A1.679,1.679,0,0,1,25.4,2294.986Zm-11.142,0a1.671,1.671,0,1,1,1.671,1.688A1.679,1.679,0,0,1,14.258,2294.986Zm-10.052,0a1.672,1.672,0,1,1,1.672,1.688A1.68,1.68,0,0,1,4.206,2294.986Zm-10.051,0a1.679,1.679,0,0,1,1.671-1.687,1.679,1.679,0,0,1,1.671,1.687,1.679,1.679,0,0,1-1.671,1.688A1.679,1.679,0,0,1-5.845,2294.986Zm-10.051,0a1.679,1.679,0,0,1,1.671-1.687,1.679,1.679,0,0,1,1.671,1.687,1.679,1.679,0,0,1-1.671,1.688A1.679,1.679,0,0,1-15.9,2294.986Zm61.4-11.022a1.672,1.672,0,1,1,1.671,1.688A1.679,1.679,0,0,1,45.5,2283.963Zm-10.051,0a1.671,1.671,0,1,1,1.671,1.688A1.679,1.679,0,0,1,35.451,2283.963Zm-10.051,0a1.671,1.671,0,1,1,1.671,1.688A1.679,1.679,0,0,1,25.4,2283.963Zm-11.142,0a1.671,1.671,0,1,1,1.671,1.688A1.679,1.679,0,0,1,14.258,2283.963Zm-10.052,0a1.672,1.672,0,1,1,1.672,1.688A1.679,1.679,0,0,1,4.206,2283.963Zm-10.051,0a1.679,1.679,0,0,1,1.671-1.687,1.679,1.679,0,0,1,1.671,1.687,1.68,1.68,0,0,1-1.671,1.688A1.68,1.68,0,0,1-5.845,2283.963Z"/></g></svg>