<svg xmlns="http://www.w3.org/2000/svg" xmlns:xlink="http://www.w3.org/1999/xlink" width="220.911" height="201.403" viewBox="0 0 220.911 201.403"><defs><style>.a{fill:none;}.b{clip-path:url(#a);}.c{fill:#f5bf00;}.d{fill:#59c0ea;stroke:#fff;}.e{stroke:none;}</style><clipPath id="a"><ellipse class="a" cx="100.643" cy="100.702" rx="100.643" ry="100.702" transform="translate(5247.096 311.865)"/></clipPath></defs><g transform="translate(-1295 -2029.097)"><g transform="translate(-3932.471 1717.232)"><g class="b"><ellipse class="c" cx="3.212" cy="3.214" rx="3.212" ry="3.214" transform="translate(5354.465 411.249)"/><ellipse class="c" cx="3.212" cy="3.214" rx="3.212" ry="3.214" transform="translate(5373.781 411.249)"/><ellipse class="c" cx="3.212" cy="3.214" rx="3.212" ry="3.214" transform="translate(5393.098 411.249)"/><ellipse class="c" cx="3.212" cy="3.214" rx="3.212" ry="3.214" transform="translate(5412.414 411.249)"/><ellipse class="c" cx="3.212" cy="3.214" rx="3.212" ry="3.214" transform="translate(5431.73 411.249)"/><ellipse class="c" cx="3.212" cy="3.214" rx="3.212" ry="3.214" transform="translate(5451.047 411.249)"/><ellipse class="c" cx="3.212" cy="3.214" rx="3.212" ry="3.214" transform="translate(5354.465 432.64)"/><ellipse class="c" cx="3.212" cy="3.214" rx="3.212" ry="3.214" transform="translate(5373.781 432.64)"/><ellipse class="c" cx="3.212" cy="3.214" rx="3.212" ry="3.214" transform="translate(5393.098 432.64)"/><ellipse class="c" cx="3.212" cy="3.214" rx="3.212" ry="3.214" transform="translate(5412.414 432.64)"/><ellipse class="c" cx="3.212" cy="3.214" rx="3.212" ry="3.214" transform="translate(5431.73 432.64)"/><ellipse class="c" cx="3.212" cy="3.214" rx="3.212" ry="3.214" transform="translate(5451.047 432.64)"/><ellipse class="c" cx="3.212" cy="3.214" rx="3.212" ry="3.214" transform="translate(5354.465 455.604)"/><ellipse class="c" cx="3.212" cy="3.214" rx="3.212" ry="3.214" transform="translate(5373.781 455.604)"/><ellipse class="c" cx="3.212" cy="3.214" rx="3.212" ry="3.214" transform="translate(5393.098 455.604)"/><ellipse class="c" cx="3.212" cy="3.214" rx="3.212" ry="3.214" transform="translate(5412.414 455.604)"/><ellipse class="c" cx="3.212" cy="3.214" rx="3.212" ry="3.214" transform="translate(5431.73 455.604)"/><ellipse class="c" cx="3.212" cy="3.214" rx="3.212" ry="3.214" transform="translate(5451.047 455.604)"/><ellipse class="c" cx="3.212" cy="3.214" rx="3.212" ry="3.214" transform="translate(5354.465 476.607)"/><ellipse class="c" cx="3.212" cy="3.214" rx="3.212" ry="3.214" transform="translate(5373.781 476.607)"/><ellipse class="c" cx="3.212" cy="3.214" rx="3.212" ry="3.214" transform="translate(5393.098 476.607)"/><ellipse class="c" cx="3.212" cy="3.214" rx="3.212" ry="3.214" transform="translate(5412.414 476.607)"/><ellipse class="c" cx="3.212" cy="3.214" rx="3.212" ry="3.214" transform="translate(5431.73 476.607)"/><ellipse class="c" cx="3.212" cy="3.214" rx="3.212" ry="3.214" transform="translate(5451.047 476.607)"/><ellipse class="c" cx="3.212" cy="3.214" rx="3.212" ry="3.214" transform="translate(5354.465 497.473)"/><ellipse class="c" cx="3.212" cy="3.214" rx="3.212" ry="3.214" transform="translate(5373.781 497.473)"/><ellipse class="c" cx="3.212" cy="3.214" rx="3.212" ry="3.214" transform="translate(5393.098 497.473)"/><ellipse class="c" cx="3.212" cy="3.214" rx="3.212" ry="3.214" transform="translate(5412.414 497.473)"/><ellipse class="c" cx="3.212" cy="3.214" rx="3.212" ry="3.214" transform="translate(5431.73 497.473)"/><ellipse class="c" cx="3.212" cy="3.214" rx="3.212" ry="3.214" transform="translate(5451.047 497.473)"/><ellipse class="c" cx="3.212" cy="3.214" rx="3.212" ry="3.214" transform="translate(5354.465 518.339)"/><ellipse class="c" cx="3.212" cy="3.214" rx="3.212" ry="3.214" transform="translate(5373.781 518.339)"/><ellipse class="c" cx="3.212" cy="3.214" rx="3.212" ry="3.214" transform="translate(5393.098 518.339)"/><ellipse class="c" cx="3.212" cy="3.214" rx="3.212" ry="3.214" transform="translate(5412.414 518.339)"/><ellipse class="c" cx="3.212" cy="3.214" rx="3.212" ry="3.214" transform="translate(5431.73 518.339)"/><ellipse class="c" cx="3.212" cy="3.214" rx="3.212" ry="3.214" transform="translate(5451.047 518.339)"/><ellipse class="c" cx="3.212" cy="3.214" rx="3.212" ry="3.214" transform="translate(5236.471 411.249)"/><ellipse class="c" cx="3.212" cy="3.214" rx="3.212" ry="3.214" transform="translate(5255.788 411.249)"/><ellipse class="c" cx="3.212" cy="3.214" rx="3.212" ry="3.214" transform="translate(5275.104 411.249)"/><ellipse class="c" cx="3.212" cy="3.214" rx="3.212" ry="3.214" transform="translate(5294.42 411.249)"/><ellipse class="c" cx="3.212" cy="3.214" rx="3.212" ry="3.214" transform="translate(5313.737 411.249)"/><ellipse class="c" cx="3.212" cy="3.214" rx="3.212" ry="3.214" transform="translate(5333.053 411.249)"/><ellipse class="c" cx="3.212" cy="3.214" rx="3.212" ry="3.214" transform="translate(5236.471 432.64)"/><ellipse class="c" cx="3.212" cy="3.214" rx="3.212" ry="3.214" transform="translate(5255.788 432.64)"/><ellipse class="c" cx="3.212" cy="3.214" rx="3.212" ry="3.214" transform="translate(5275.104 432.64)"/><ellipse class="c" cx="3.212" cy="3.214" rx="3.212" ry="3.214" transform="translate(5294.42 432.64)"/><ellipse class="c" cx="3.212" cy="3.214" rx="3.212" ry="3.214" transform="translate(5313.737 432.64)"/><ellipse class="c" cx="3.212" cy="3.214" rx="3.212" ry="3.214" transform="translate(5333.053 432.64)"/><ellipse class="c" cx="3.212" cy="3.214" rx="3.212" ry="3.214" transform="translate(5236.471 455.604)"/><ellipse class="c" cx="3.212" cy="3.214" rx="3.212" ry="3.214" transform="translate(5255.788 455.604)"/><ellipse class="c" cx="3.212" cy="3.214" rx="3.212" ry="3.214" transform="translate(5275.104 455.604)"/><ellipse class="c" cx="3.212" cy="3.214" rx="3.212" ry="3.214" transform="translate(5294.42 455.604)"/><ellipse class="c" cx="3.212" cy="3.214" rx="3.212" ry="3.214" transform="translate(5313.737 455.604)"/><ellipse class="c" cx="3.212" cy="3.214" rx="3.212" ry="3.214" transform="translate(5333.053 455.604)"/><ellipse class="c" cx="3.212" cy="3.214" rx="3.212" ry="3.214" transform="translate(5236.471 476.607)"/><ellipse class="c" cx="3.212" cy="3.214" rx="3.212" ry="3.214" transform="translate(5255.788 476.607)"/><ellipse class="c" cx="3.212" cy="3.214" rx="3.212" ry="3.214" transform="translate(5275.104 476.607)"/><ellipse class="c" cx="3.212" cy="3.214" rx="3.212" ry="3.214" transform="translate(5294.42 476.607)"/><ellipse class="c" cx="3.212" cy="3.214" rx="3.212" ry="3.214" transform="translate(5313.737 476.607)"/><ellipse class="c" cx="3.212" cy="3.214" rx="3.212" ry="3.214" transform="translate(5333.053 476.607)"/><ellipse class="c" cx="3.212" cy="3.214" rx="3.212" ry="3.214" transform="translate(5236.471 497.473)"/><ellipse class="c" cx="3.212" cy="3.214" rx="3.212" ry="3.214" transform="translate(5255.788 497.473)"/><ellipse class="c" cx="3.212" cy="3.214" rx="3.212" ry="3.214" transform="translate(5275.104 497.473)"/><ellipse class="c" cx="3.212" cy="3.214" rx="3.212" ry="3.214" transform="translate(5294.42 497.473)"/><ellipse class="c" cx="3.212" cy="3.214" rx="3.212" ry="3.214" transform="translate(5313.737 497.473)"/><ellipse class="c" cx="3.212" cy="3.214" rx="3.212" ry="3.214" transform="translate(5333.053 497.473)"/><ellipse class="c" cx="3.212" cy="3.214" rx="3.212" ry="3.214" transform="translate(5236.471 518.339)"/><ellipse class="c" cx="3.212" cy="3.214" rx="3.212" ry="3.214" transform="translate(5255.788 518.339)"/><ellipse class="c" cx="3.212" cy="3.214" rx="3.212" ry="3.214" transform="translate(5275.104 518.339)"/><ellipse class="c" cx="3.212" cy="3.214" rx="3.212" ry="3.214" transform="translate(5294.42 518.339)"/><ellipse class="c" cx="3.212" cy="3.214" rx="3.212" ry="3.214" transform="translate(5313.737 518.339)"/><ellipse class="c" cx="3.212" cy="3.214" rx="3.212" ry="3.214" transform="translate(5333.053 518.339)"/><ellipse class="c" cx="3.212" cy="3.214" rx="3.212" ry="3.214" transform="translate(5354.465 282.768)"/><ellipse class="c" cx="3.212" cy="3.214" rx="3.212" ry="3.214" transform="translate(5373.781 282.768)"/><ellipse class="c" cx="3.212" cy="3.214" rx="3.212" ry="3.214" transform="translate(5393.098 282.768)"/><ellipse class="c" cx="3.212" cy="3.214" rx="3.212" ry="3.214" transform="translate(5412.414 282.768)"/><ellipse class="c" cx="3.212" cy="3.214" rx="3.212" ry="3.214" transform="translate(5431.73 282.768)"/><ellipse class="c" cx="3.212" cy="3.214" rx="3.212" ry="3.214" transform="translate(5451.047 282.768)"/><ellipse class="c" cx="3.212" cy="3.214" rx="3.212" ry="3.214" transform="translate(5354.465 304.159)"/><ellipse class="c" cx="3.212" cy="3.214" rx="3.212" ry="3.214" transform="translate(5373.781 304.159)"/><ellipse class="c" cx="3.212" cy="3.214" rx="3.212" ry="3.214" transform="translate(5393.098 304.159)"/><ellipse class="c" cx="3.212" cy="3.214" rx="3.212" ry="3.214" transform="translate(5412.414 304.159)"/><ellipse class="c" cx="3.212" cy="3.214" rx="3.212" ry="3.214" transform="translate(5431.73 304.159)"/><ellipse class="c" cx="3.212" cy="3.214" rx="3.212" ry="3.214" transform="translate(5451.047 304.159)"/><ellipse class="c" cx="3.212" cy="3.214" rx="3.212" ry="3.214" transform="translate(5354.465 327.122)"/><ellipse class="c" cx="3.212" cy="3.214" rx="3.212" ry="3.214" transform="translate(5373.781 327.122)"/><ellipse class="c" cx="3.212" cy="3.214" rx="3.212" ry="3.214" transform="translate(5393.098 327.122)"/><ellipse class="c" cx="3.212" cy="3.214" rx="3.212" ry="3.214" transform="translate(5412.414 327.122)"/><ellipse class="c" cx="3.212" cy="3.214" rx="3.212" ry="3.214" transform="translate(5431.73 327.122)"/><ellipse class="c" cx="3.212" cy="3.214" rx="3.212" ry="3.214" transform="translate(5451.047 327.122)"/><ellipse class="c" cx="3.212" cy="3.214" rx="3.212" ry="3.214" transform="translate(5354.465 348.125)"/><ellipse class="c" cx="3.212" cy="3.214" rx="3.212" ry="3.214" transform="translate(5373.781 348.125)"/><ellipse class="c" cx="3.212" cy="3.214" rx="3.212" ry="3.214" transform="translate(5393.098 348.125)"/><ellipse class="c" cx="3.212" cy="3.214" rx="3.212" ry="3.214" transform="translate(5412.414 348.125)"/><ellipse class="c" cx="3.212" cy="3.214" rx="3.212" ry="3.214" transform="translate(5431.73 348.125)"/><ellipse class="c" cx="3.212" cy="3.214" rx="3.212" ry="3.214" transform="translate(5451.047 348.125)"/><ellipse class="c" cx="3.212" cy="3.214" rx="3.212" ry="3.214" transform="translate(5354.465 368.992)"/><ellipse class="c" cx="3.212" cy="3.214" rx="3.212" ry="3.214" transform="translate(5373.781 368.992)"/><ellipse class="c" cx="3.212" cy="3.214" rx="3.212" ry="3.214" transform="translate(5393.098 368.992)"/><ellipse class="c" cx="3.212" cy="3.214" rx="3.212" ry="3.214" transform="translate(5412.414 368.992)"/><ellipse class="c" cx="3.212" cy="3.214" rx="3.212" ry="3.214" transform="translate(5431.73 368.992)"/><ellipse class="c" cx="3.212" cy="3.214" rx="3.212" ry="3.214" transform="translate(5451.047 368.992)"/><ellipse class="c" cx="3.212" cy="3.214" rx="3.212" ry="3.214" transform="translate(5354.465 389.858)"/><ellipse class="c" cx="3.212" cy="3.214" rx="3.212" ry="3.214" transform="translate(5373.781 389.858)"/><ellipse class="c" cx="3.212" cy="3.214" rx="3.212" ry="3.214" transform="translate(5393.098 389.858)"/><ellipse class="c" cx="3.271" cy="3.273" rx="3.271" ry="3.273" transform="translate(5412.414 389.858)"/><ellipse class="c" cx="3.212" cy="3.214" rx="3.212" ry="3.214" transform="translate(5431.73 389.858)"/><ellipse class="c" cx="3.212" cy="3.214" rx="3.212" ry="3.214" transform="translate(5451.047 389.858)"/><ellipse class="c" cx="3.212" cy="3.214" rx="3.212" ry="3.214" transform="translate(5236.471 282.768)"/><ellipse class="c" cx="3.212" cy="3.214" rx="3.212" ry="3.214" transform="translate(5255.788 282.768)"/><ellipse class="c" cx="3.212" cy="3.214" rx="3.212" ry="3.214" transform="translate(5275.104 282.768)"/><ellipse class="c" cx="3.212" cy="3.214" rx="3.212" ry="3.214" transform="translate(5294.42 282.768)"/><ellipse class="c" cx="3.212" cy="3.214" rx="3.212" ry="3.214" transform="translate(5313.737 282.768)"/><ellipse class="c" cx="3.212" cy="3.214" rx="3.212" ry="3.214" transform="translate(5333.053 282.768)"/><ellipse class="c" cx="3.212" cy="3.214" rx="3.212" ry="3.214" transform="translate(5236.471 304.159)"/><ellipse class="c" cx="3.212" cy="3.214" rx="3.212" ry="3.214" transform="translate(5255.788 304.159)"/><ellipse class="c" cx="3.212" cy="3.214" rx="3.212" ry="3.214" transform="translate(5275.104 304.159)"/><ellipse class="c" cx="3.212" cy="3.214" rx="3.212" ry="3.214" transform="translate(5294.42 304.159)"/><ellipse class="c" cx="3.212" cy="3.214" rx="3.212" ry="3.214" transform="translate(5313.737 304.159)"/><ellipse class="c" cx="3.212" cy="3.214" rx="3.212" ry="3.214" transform="translate(5333.053 304.159)"/><ellipse class="c" cx="3.212" cy="3.214" rx="3.212" ry="3.214" transform="translate(5236.471 327.122)"/><ellipse class="c" cx="3.212" cy="3.214" rx="3.212" ry="3.214" transform="translate(5255.788 327.122)"/><ellipse class="c" cx="3.212" cy="3.214" rx="3.212" ry="3.214" transform="translate(5275.104 327.122)"/><ellipse class="c" cx="3.212" cy="3.214" rx="3.212" ry="3.214" transform="translate(5294.42 327.122)"/><ellipse class="c" cx="3.212" cy="3.214" rx="3.212" ry="3.214" transform="translate(5313.737 327.122)"/><ellipse class="c" cx="3.212" cy="3.214" rx="3.212" ry="3.214" transform="translate(5333.053 327.122)"/><ellipse class="c" cx="3.212" cy="3.214" rx="3.212" ry="3.214" transform="translate(5236.471 348.125)"/><ellipse class="c" cx="3.212" cy="3.214" rx="3.212" ry="3.214" transform="translate(5255.788 348.125)"/><ellipse class="c" cx="3.212" cy="3.214" rx="3.212" ry="3.214" transform="translate(5275.104 348.125)"/><ellipse class="c" cx="3.212" cy="3.214" rx="3.212" ry="3.214" transform="translate(5294.42 348.125)"/><ellipse class="c" cx="3.212" cy="3.214" rx="3.212" ry="3.214" transform="translate(5313.737 348.125)"/><ellipse class="c" cx="3.212" cy="3.214" rx="3.212" ry="3.214" transform="translate(5333.053 348.125)"/><ellipse class="c" cx="3.212" cy="3.214" rx="3.212" ry="3.214" transform="translate(5236.471 368.992)"/><ellipse class="c" cx="3.212" cy="3.214" rx="3.212" ry="3.214" transform="translate(5255.788 368.992)"/><ellipse class="c" cx="3.212" cy="3.214" rx="3.212" ry="3.214" transform="translate(5275.104 368.992)"/><ellipse class="c" cx="3.212" cy="3.214" rx="3.212" ry="3.214" transform="translate(5294.42 368.992)"/><ellipse class="c" cx="3.212" cy="3.214" rx="3.212" ry="3.214" transform="translate(5313.737 368.992)"/><ellipse class="c" cx="3.212" cy="3.214" rx="3.212" ry="3.214" transform="translate(5333.053 368.992)"/><ellipse class="c" cx="3.212" cy="3.214" rx="3.212" ry="3.214" transform="translate(5236.471 389.858)"/><ellipse class="c" cx="3.212" cy="3.214" rx="3.212" ry="3.214" transform="translate(5255.788 389.858)"/><ellipse class="c" cx="3.212" cy="3.214" rx="3.212" ry="3.214" transform="translate(5275.104 389.858)"/><ellipse class="c" cx="3.212" cy="3.214" rx="3.212" ry="3.214" transform="translate(5294.42 389.858)"/><ellipse class="c" cx="3.212" cy="3.214" rx="3.212" ry="3.214" transform="translate(5313.737 389.858)"/><ellipse class="c" cx="3.212" cy="3.214" rx="3.212" ry="3.214" transform="translate(5333.053 389.858)"/></g></g><g class="d" transform="translate(1295 2156.87)"><ellipse class="e" cx="34.5" cy="34" rx="34.5" ry="34"/><ellipse class="a" cx="34.5" cy="34" rx="34" ry="33.5"/></g></g></svg>