<svg xmlns="http://www.w3.org/2000/svg" xmlns:xlink="http://www.w3.org/1999/xlink" width="258.982" height="241.68" viewBox="0 0 258.982 241.68"><defs><style>.a{fill:none;}.b{fill:#59c0ea;}.c{clip-path:url(#a);}.d{fill:#f5bf00;}</style><clipPath id="a"><ellipse class="a" cx="55.559" cy="55.344" rx="55.559" ry="55.344" transform="translate(2896.587 171.397)"/></clipPath></defs><g transform="translate(93 -3638)"><circle class="b" cx="114.5" cy="114.5" r="114.5" transform="translate(-93 3638)"/><g transform="translate(-2841.722 3597.595)"><g class="c"><ellipse class="d" cx="1.773" cy="1.766" rx="1.773" ry="1.766" transform="translate(2955.859 226.017)"/><ellipse class="d" cx="1.773" cy="1.766" rx="1.773" ry="1.766" transform="translate(2966.522 226.017)"/><ellipse class="d" cx="1.773" cy="1.766" rx="1.773" ry="1.766" transform="translate(2977.185 226.017)"/><ellipse class="d" cx="1.773" cy="1.766" rx="1.773" ry="1.766" transform="translate(2987.848 226.017)"/><ellipse class="d" cx="1.773" cy="1.766" rx="1.773" ry="1.766" transform="translate(2998.512 226.017)"/><ellipse class="d" cx="1.773" cy="1.766" rx="1.773" ry="1.766" transform="translate(3009.175 226.017)"/><ellipse class="d" cx="1.773" cy="1.766" rx="1.773" ry="1.766" transform="translate(2955.859 237.773)"/><ellipse class="d" cx="1.773" cy="1.766" rx="1.773" ry="1.766" transform="translate(2966.522 237.773)"/><ellipse class="d" cx="1.773" cy="1.766" rx="1.773" ry="1.766" transform="translate(2977.185 237.773)"/><ellipse class="d" cx="1.773" cy="1.766" rx="1.773" ry="1.766" transform="translate(2987.848 237.773)"/><ellipse class="d" cx="1.773" cy="1.766" rx="1.773" ry="1.766" transform="translate(2998.512 237.773)"/><ellipse class="d" cx="1.773" cy="1.766" rx="1.773" ry="1.766" transform="translate(3009.175 237.773)"/><ellipse class="d" cx="1.773" cy="1.766" rx="1.773" ry="1.766" transform="translate(2955.859 250.394)"/><ellipse class="d" cx="1.773" cy="1.766" rx="1.773" ry="1.766" transform="translate(2966.522 250.394)"/><ellipse class="d" cx="1.773" cy="1.766" rx="1.773" ry="1.766" transform="translate(2977.185 250.394)"/><ellipse class="d" cx="1.773" cy="1.766" rx="1.773" ry="1.766" transform="translate(2987.848 250.394)"/><ellipse class="d" cx="1.773" cy="1.766" rx="1.773" ry="1.766" transform="translate(2998.512 250.394)"/><ellipse class="d" cx="1.773" cy="1.766" rx="1.773" ry="1.766" transform="translate(3009.175 250.394)"/><ellipse class="d" cx="1.773" cy="1.766" rx="1.773" ry="1.766" transform="translate(2955.859 261.937)"/><ellipse class="d" cx="1.773" cy="1.766" rx="1.773" ry="1.766" transform="translate(2966.522 261.937)"/><ellipse class="d" cx="1.773" cy="1.766" rx="1.773" ry="1.766" transform="translate(2977.185 261.937)"/><ellipse class="d" cx="1.773" cy="1.766" rx="1.773" ry="1.766" transform="translate(2987.848 261.937)"/><ellipse class="d" cx="1.773" cy="1.766" rx="1.773" ry="1.766" transform="translate(2998.512 261.937)"/><ellipse class="d" cx="1.773" cy="1.766" rx="1.773" ry="1.766" transform="translate(3009.175 261.937)"/><ellipse class="d" cx="1.773" cy="1.766" rx="1.773" ry="1.766" transform="translate(2955.859 273.405)"/><ellipse class="d" cx="1.773" cy="1.766" rx="1.773" ry="1.766" transform="translate(2966.522 273.405)"/><ellipse class="d" cx="1.773" cy="1.766" rx="1.773" ry="1.766" transform="translate(2977.185 273.405)"/><ellipse class="d" cx="1.773" cy="1.766" rx="1.773" ry="1.766" transform="translate(2987.848 273.405)"/><ellipse class="d" cx="1.773" cy="1.766" rx="1.773" ry="1.766" transform="translate(2998.512 273.405)"/><ellipse class="d" cx="1.773" cy="1.766" rx="1.773" ry="1.766" transform="translate(3009.175 273.405)"/><ellipse class="d" cx="1.773" cy="1.766" rx="1.773" ry="1.766" transform="translate(2955.859 284.872)"/><ellipse class="d" cx="1.773" cy="1.766" rx="1.773" ry="1.766" transform="translate(2966.522 284.872)"/><ellipse class="d" cx="1.773" cy="1.766" rx="1.773" ry="1.766" transform="translate(2977.185 284.872)"/><ellipse class="d" cx="1.773" cy="1.766" rx="1.773" ry="1.766" transform="translate(2987.848 284.872)"/><ellipse class="d" cx="1.773" cy="1.766" rx="1.773" ry="1.766" transform="translate(2998.512 284.872)"/><ellipse class="d" cx="1.773" cy="1.766" rx="1.773" ry="1.766" transform="translate(3009.175 284.872)"/><ellipse class="d" cx="1.773" cy="1.766" rx="1.773" ry="1.766" transform="translate(2890.722 226.017)"/><ellipse class="d" cx="1.773" cy="1.766" rx="1.773" ry="1.766" transform="translate(2901.385 226.017)"/><ellipse class="d" cx="1.773" cy="1.766" rx="1.773" ry="1.766" transform="translate(2912.048 226.017)"/><ellipse class="d" cx="1.773" cy="1.766" rx="1.773" ry="1.766" transform="translate(2922.712 226.017)"/><ellipse class="d" cx="1.773" cy="1.766" rx="1.773" ry="1.766" transform="translate(2933.375 226.017)"/><ellipse class="d" cx="1.773" cy="1.766" rx="1.773" ry="1.766" transform="translate(2944.038 226.017)"/><ellipse class="d" cx="1.773" cy="1.766" rx="1.773" ry="1.766" transform="translate(2890.722 237.773)"/><ellipse class="d" cx="1.773" cy="1.766" rx="1.773" ry="1.766" transform="translate(2901.385 237.773)"/><ellipse class="d" cx="1.773" cy="1.766" rx="1.773" ry="1.766" transform="translate(2912.048 237.773)"/><ellipse class="d" cx="1.773" cy="1.766" rx="1.773" ry="1.766" transform="translate(2922.712 237.773)"/><ellipse class="d" cx="1.773" cy="1.766" rx="1.773" ry="1.766" transform="translate(2933.375 237.773)"/><ellipse class="d" cx="1.773" cy="1.766" rx="1.773" ry="1.766" transform="translate(2944.038 237.773)"/><ellipse class="d" cx="1.773" cy="1.766" rx="1.773" ry="1.766" transform="translate(2890.722 250.394)"/><ellipse class="d" cx="1.773" cy="1.766" rx="1.773" ry="1.766" transform="translate(2901.385 250.394)"/><ellipse class="d" cx="1.773" cy="1.766" rx="1.773" ry="1.766" transform="translate(2912.048 250.394)"/><ellipse class="d" cx="1.773" cy="1.766" rx="1.773" ry="1.766" transform="translate(2922.712 250.394)"/><ellipse class="d" cx="1.773" cy="1.766" rx="1.773" ry="1.766" transform="translate(2933.375 250.394)"/><ellipse class="d" cx="1.773" cy="1.766" rx="1.773" ry="1.766" transform="translate(2944.038 250.394)"/><ellipse class="d" cx="1.773" cy="1.766" rx="1.773" ry="1.766" transform="translate(2890.722 261.937)"/><ellipse class="d" cx="1.773" cy="1.766" rx="1.773" ry="1.766" transform="translate(2901.385 261.937)"/><ellipse class="d" cx="1.773" cy="1.766" rx="1.773" ry="1.766" transform="translate(2912.048 261.937)"/><ellipse class="d" cx="1.773" cy="1.766" rx="1.773" ry="1.766" transform="translate(2922.712 261.937)"/><ellipse class="d" cx="1.773" cy="1.766" rx="1.773" ry="1.766" transform="translate(2933.375 261.937)"/><ellipse class="d" cx="1.773" cy="1.766" rx="1.773" ry="1.766" transform="translate(2944.038 261.937)"/><ellipse class="d" cx="1.773" cy="1.766" rx="1.773" ry="1.766" transform="translate(2890.722 273.405)"/><ellipse class="d" cx="1.773" cy="1.766" rx="1.773" ry="1.766" transform="translate(2901.385 273.405)"/><ellipse class="d" cx="1.773" cy="1.766" rx="1.773" ry="1.766" transform="translate(2912.048 273.405)"/><ellipse class="d" cx="1.773" cy="1.766" rx="1.773" ry="1.766" transform="translate(2922.712 273.405)"/><ellipse class="d" cx="1.773" cy="1.766" rx="1.773" ry="1.766" transform="translate(2933.375 273.405)"/><ellipse class="d" cx="1.773" cy="1.766" rx="1.773" ry="1.766" transform="translate(2944.038 273.405)"/><ellipse class="d" cx="1.773" cy="1.766" rx="1.773" ry="1.766" transform="translate(2890.722 284.872)"/><ellipse class="d" cx="1.773" cy="1.766" rx="1.773" ry="1.766" transform="translate(2901.385 284.872)"/><ellipse class="d" cx="1.773" cy="1.766" rx="1.773" ry="1.766" transform="translate(2912.048 284.872)"/><ellipse class="d" cx="1.773" cy="1.766" rx="1.773" ry="1.766" transform="translate(2922.712 284.872)"/><ellipse class="d" cx="1.773" cy="1.766" rx="1.773" ry="1.766" transform="translate(2933.375 284.872)"/><ellipse class="d" cx="1.773" cy="1.766" rx="1.773" ry="1.766" transform="translate(2944.038 284.872)"/><ellipse class="d" cx="1.773" cy="1.766" rx="1.773" ry="1.766" transform="translate(2955.859 155.405)"/><ellipse class="d" cx="1.773" cy="1.766" rx="1.773" ry="1.766" transform="translate(2966.522 155.405)"/><ellipse class="d" cx="1.773" cy="1.766" rx="1.773" ry="1.766" transform="translate(2977.185 155.405)"/><ellipse class="d" cx="1.773" cy="1.766" rx="1.773" ry="1.766" transform="translate(2987.848 155.405)"/><ellipse class="d" cx="1.773" cy="1.766" rx="1.773" ry="1.766" transform="translate(2998.512 155.405)"/><ellipse class="d" cx="1.773" cy="1.766" rx="1.773" ry="1.766" transform="translate(3009.175 155.405)"/><ellipse class="d" cx="1.773" cy="1.766" rx="1.773" ry="1.766" transform="translate(2955.859 167.162)"/><ellipse class="d" cx="1.773" cy="1.766" rx="1.773" ry="1.766" transform="translate(2966.522 167.162)"/><ellipse class="d" cx="1.773" cy="1.766" rx="1.773" ry="1.766" transform="translate(2977.185 167.162)"/><ellipse class="d" cx="1.773" cy="1.766" rx="1.773" ry="1.766" transform="translate(2987.848 167.162)"/><ellipse class="d" cx="1.773" cy="1.766" rx="1.773" ry="1.766" transform="translate(2998.512 167.162)"/><ellipse class="d" cx="1.773" cy="1.766" rx="1.773" ry="1.766" transform="translate(3009.175 167.162)"/><ellipse class="d" cx="1.773" cy="1.766" rx="1.773" ry="1.766" transform="translate(2955.859 179.782)"/><ellipse class="d" cx="1.773" cy="1.766" rx="1.773" ry="1.766" transform="translate(2966.522 179.782)"/><ellipse class="d" cx="1.773" cy="1.766" rx="1.773" ry="1.766" transform="translate(2977.185 179.782)"/><ellipse class="d" cx="1.773" cy="1.766" rx="1.773" ry="1.766" transform="translate(2987.848 179.782)"/><ellipse class="d" cx="1.773" cy="1.766" rx="1.773" ry="1.766" transform="translate(2998.512 179.782)"/><ellipse class="d" cx="1.773" cy="1.766" rx="1.773" ry="1.766" transform="translate(3009.175 179.782)"/><ellipse class="d" cx="1.773" cy="1.766" rx="1.773" ry="1.766" transform="translate(2955.859 191.325)"/><ellipse class="d" cx="1.773" cy="1.766" rx="1.773" ry="1.766" transform="translate(2966.522 191.325)"/><ellipse class="d" cx="1.773" cy="1.766" rx="1.773" ry="1.766" transform="translate(2977.185 191.325)"/><ellipse class="d" cx="1.773" cy="1.766" rx="1.773" ry="1.766" transform="translate(2987.848 191.325)"/><ellipse class="d" cx="1.773" cy="1.766" rx="1.773" ry="1.766" transform="translate(2998.512 191.325)"/><ellipse class="d" cx="1.773" cy="1.766" rx="1.773" ry="1.766" transform="translate(3009.175 191.325)"/><ellipse class="d" cx="1.773" cy="1.766" rx="1.773" ry="1.766" transform="translate(2955.859 202.793)"/><ellipse class="d" cx="1.773" cy="1.766" rx="1.773" ry="1.766" transform="translate(2966.522 202.793)"/><ellipse class="d" cx="1.773" cy="1.766" rx="1.773" ry="1.766" transform="translate(2977.185 202.793)"/><ellipse class="d" cx="1.773" cy="1.766" rx="1.773" ry="1.766" transform="translate(2987.848 202.793)"/><ellipse class="d" cx="1.773" cy="1.766" rx="1.773" ry="1.766" transform="translate(2998.512 202.793)"/><ellipse class="d" cx="1.773" cy="1.766" rx="1.773" ry="1.766" transform="translate(3009.175 202.793)"/><ellipse class="d" cx="1.773" cy="1.766" rx="1.773" ry="1.766" transform="translate(2955.859 214.261)"/><ellipse class="d" cx="1.773" cy="1.766" rx="1.773" ry="1.766" transform="translate(2966.522 214.261)"/><ellipse class="d" cx="1.773" cy="1.766" rx="1.773" ry="1.766" transform="translate(2977.185 214.261)"/><ellipse class="d" cx="1.806" cy="1.799" rx="1.806" ry="1.799" transform="translate(2987.848 214.261)"/><ellipse class="d" cx="1.773" cy="1.766" rx="1.773" ry="1.766" transform="translate(2998.512 214.261)"/><ellipse class="d" cx="1.773" cy="1.766" rx="1.773" ry="1.766" transform="translate(3009.175 214.261)"/><ellipse class="d" cx="1.773" cy="1.766" rx="1.773" ry="1.766" transform="translate(2890.722 155.405)"/><ellipse class="d" cx="1.773" cy="1.766" rx="1.773" ry="1.766" transform="translate(2901.385 155.405)"/><ellipse class="d" cx="1.773" cy="1.766" rx="1.773" ry="1.766" transform="translate(2912.048 155.405)"/><ellipse class="d" cx="1.773" cy="1.766" rx="1.773" ry="1.766" transform="translate(2922.712 155.405)"/><ellipse class="d" cx="1.773" cy="1.766" rx="1.773" ry="1.766" transform="translate(2933.375 155.405)"/><ellipse class="d" cx="1.773" cy="1.766" rx="1.773" ry="1.766" transform="translate(2944.038 155.405)"/><ellipse class="d" cx="1.773" cy="1.766" rx="1.773" ry="1.766" transform="translate(2890.722 167.162)"/><ellipse class="d" cx="1.773" cy="1.766" rx="1.773" ry="1.766" transform="translate(2901.385 167.162)"/><ellipse class="d" cx="1.773" cy="1.766" rx="1.773" ry="1.766" transform="translate(2912.048 167.162)"/><ellipse class="d" cx="1.773" cy="1.766" rx="1.773" ry="1.766" transform="translate(2922.712 167.162)"/><ellipse class="d" cx="1.773" cy="1.766" rx="1.773" ry="1.766" transform="translate(2933.375 167.162)"/><ellipse class="d" cx="1.773" cy="1.766" rx="1.773" ry="1.766" transform="translate(2944.038 167.162)"/><ellipse class="d" cx="1.773" cy="1.766" rx="1.773" ry="1.766" transform="translate(2890.722 179.782)"/><ellipse class="d" cx="1.773" cy="1.766" rx="1.773" ry="1.766" transform="translate(2901.385 179.782)"/><ellipse class="d" cx="1.773" cy="1.766" rx="1.773" ry="1.766" transform="translate(2912.048 179.782)"/><ellipse class="d" cx="1.773" cy="1.766" rx="1.773" ry="1.766" transform="translate(2922.712 179.782)"/><ellipse class="d" cx="1.773" cy="1.766" rx="1.773" ry="1.766" transform="translate(2933.375 179.782)"/><ellipse class="d" cx="1.773" cy="1.766" rx="1.773" ry="1.766" transform="translate(2944.038 179.782)"/><ellipse class="d" cx="1.773" cy="1.766" rx="1.773" ry="1.766" transform="translate(2890.722 191.325)"/><ellipse class="d" cx="1.773" cy="1.766" rx="1.773" ry="1.766" transform="translate(2901.385 191.325)"/><ellipse class="d" cx="1.773" cy="1.766" rx="1.773" ry="1.766" transform="translate(2912.048 191.325)"/><ellipse class="d" cx="1.773" cy="1.766" rx="1.773" ry="1.766" transform="translate(2922.712 191.325)"/><ellipse class="d" cx="1.773" cy="1.766" rx="1.773" ry="1.766" transform="translate(2933.375 191.325)"/><ellipse class="d" cx="1.773" cy="1.766" rx="1.773" ry="1.766" transform="translate(2944.038 191.325)"/><ellipse class="d" cx="1.773" cy="1.766" rx="1.773" ry="1.766" transform="translate(2890.722 202.793)"/><ellipse class="d" cx="1.773" cy="1.766" rx="1.773" ry="1.766" transform="translate(2901.385 202.793)"/><ellipse class="d" cx="1.773" cy="1.766" rx="1.773" ry="1.766" transform="translate(2912.048 202.793)"/><ellipse class="d" cx="1.773" cy="1.766" rx="1.773" ry="1.766" transform="translate(2922.712 202.793)"/><ellipse class="d" cx="1.773" cy="1.766" rx="1.773" ry="1.766" transform="translate(2933.375 202.793)"/><ellipse class="d" cx="1.773" cy="1.766" rx="1.773" ry="1.766" transform="translate(2944.038 202.793)"/><ellipse class="d" cx="1.773" cy="1.766" rx="1.773" ry="1.766" transform="translate(2890.722 214.261)"/><ellipse class="d" cx="1.773" cy="1.766" rx="1.773" ry="1.766" transform="translate(2901.385 214.261)"/><ellipse class="d" cx="1.773" cy="1.766" rx="1.773" ry="1.766" transform="translate(2912.048 214.261)"/><ellipse class="d" cx="1.773" cy="1.766" rx="1.773" ry="1.766" transform="translate(2922.712 214.261)"/><ellipse class="d" cx="1.773" cy="1.766" rx="1.773" ry="1.766" transform="translate(2933.375 214.261)"/><ellipse class="d" cx="1.773" cy="1.766" rx="1.773" ry="1.766" transform="translate(2944.038 214.261)"/></g></g></g></svg>