<svg xmlns="http://www.w3.org/2000/svg" xmlns:xlink="http://www.w3.org/1999/xlink" width="148.46" height="148.14" viewBox="0 0 148.46 148.14"><defs><style>.a{fill:none;}.b{clip-path:url(#a);}.c{fill:#f5bf00;}</style><clipPath id="a"><ellipse class="a" cx="74.23" cy="74.07" rx="74.23" ry="74.07" transform="translate(3870.03 229.388)"/></clipPath></defs><g transform="translate(-3870.03 -229.388)"><g class="b"><ellipse class="c" cx="2.369" cy="2.364" rx="2.369" ry="2.364" transform="translate(3949.221 302.489)"/><ellipse class="c" cx="2.369" cy="2.364" rx="2.369" ry="2.364" transform="translate(3963.468 302.489)"/><ellipse class="c" cx="2.369" cy="2.364" rx="2.369" ry="2.364" transform="translate(3977.714 302.489)"/><ellipse class="c" cx="2.369" cy="2.364" rx="2.369" ry="2.364" transform="translate(3991.961 302.489)"/><ellipse class="c" cx="2.369" cy="2.364" rx="2.369" ry="2.364" transform="translate(4006.208 302.489)"/><ellipse class="c" cx="2.369" cy="2.364" rx="2.369" ry="2.364" transform="translate(4020.455 302.489)"/><ellipse class="c" cx="2.369" cy="2.364" rx="2.369" ry="2.364" transform="translate(3949.221 318.223)"/><ellipse class="c" cx="2.369" cy="2.364" rx="2.369" ry="2.364" transform="translate(3963.468 318.223)"/><ellipse class="c" cx="2.369" cy="2.364" rx="2.369" ry="2.364" transform="translate(3977.714 318.223)"/><ellipse class="c" cx="2.369" cy="2.364" rx="2.369" ry="2.364" transform="translate(3991.961 318.223)"/><ellipse class="c" cx="2.369" cy="2.364" rx="2.369" ry="2.364" transform="translate(4006.208 318.223)"/><ellipse class="c" cx="2.369" cy="2.364" rx="2.369" ry="2.364" transform="translate(4020.455 318.223)"/><ellipse class="c" cx="2.369" cy="2.364" rx="2.369" ry="2.364" transform="translate(3949.221 335.114)"/><ellipse class="c" cx="2.369" cy="2.364" rx="2.369" ry="2.364" transform="translate(3963.468 335.114)"/><ellipse class="c" cx="2.369" cy="2.364" rx="2.369" ry="2.364" transform="translate(3977.714 335.114)"/><ellipse class="c" cx="2.369" cy="2.364" rx="2.369" ry="2.364" transform="translate(3991.961 335.114)"/><ellipse class="c" cx="2.369" cy="2.364" rx="2.369" ry="2.364" transform="translate(4006.208 335.114)"/><ellipse class="c" cx="2.369" cy="2.364" rx="2.369" ry="2.364" transform="translate(4020.455 335.114)"/><ellipse class="c" cx="2.369" cy="2.364" rx="2.369" ry="2.364" transform="translate(3949.221 350.562)"/><ellipse class="c" cx="2.369" cy="2.364" rx="2.369" ry="2.364" transform="translate(3963.468 350.562)"/><ellipse class="c" cx="2.369" cy="2.364" rx="2.369" ry="2.364" transform="translate(3977.714 350.562)"/><ellipse class="c" cx="2.369" cy="2.364" rx="2.369" ry="2.364" transform="translate(3991.961 350.562)"/><ellipse class="c" cx="2.369" cy="2.364" rx="2.369" ry="2.364" transform="translate(4006.208 350.562)"/><ellipse class="c" cx="2.369" cy="2.364" rx="2.369" ry="2.364" transform="translate(4020.455 350.562)"/><ellipse class="c" cx="2.369" cy="2.364" rx="2.369" ry="2.364" transform="translate(3949.221 365.91)"/><ellipse class="c" cx="2.369" cy="2.364" rx="2.369" ry="2.364" transform="translate(3963.468 365.91)"/><ellipse class="c" cx="2.369" cy="2.364" rx="2.369" ry="2.364" transform="translate(3977.714 365.91)"/><ellipse class="c" cx="2.369" cy="2.364" rx="2.369" ry="2.364" transform="translate(3991.961 365.91)"/><ellipse class="c" cx="2.369" cy="2.364" rx="2.369" ry="2.364" transform="translate(4006.208 365.91)"/><ellipse class="c" cx="2.369" cy="2.364" rx="2.369" ry="2.364" transform="translate(4020.455 365.91)"/><ellipse class="c" cx="2.369" cy="2.364" rx="2.369" ry="2.364" transform="translate(3949.221 381.258)"/><ellipse class="c" cx="2.369" cy="2.364" rx="2.369" ry="2.364" transform="translate(3963.468 381.258)"/><ellipse class="c" cx="2.369" cy="2.364" rx="2.369" ry="2.364" transform="translate(3977.714 381.258)"/><ellipse class="c" cx="2.369" cy="2.364" rx="2.369" ry="2.364" transform="translate(3991.961 381.258)"/><ellipse class="c" cx="2.369" cy="2.364" rx="2.369" ry="2.364" transform="translate(4006.208 381.258)"/><ellipse class="c" cx="2.369" cy="2.364" rx="2.369" ry="2.364" transform="translate(4020.455 381.258)"/><ellipse class="c" cx="2.369" cy="2.364" rx="2.369" ry="2.364" transform="translate(3862.194 302.489)"/><ellipse class="c" cx="2.369" cy="2.364" rx="2.369" ry="2.364" transform="translate(3876.441 302.489)"/><ellipse class="c" cx="2.369" cy="2.364" rx="2.369" ry="2.364" transform="translate(3890.688 302.489)"/><ellipse class="c" cx="2.369" cy="2.364" rx="2.369" ry="2.364" transform="translate(3904.934 302.489)"/><ellipse class="c" cx="2.369" cy="2.364" rx="2.369" ry="2.364" transform="translate(3919.181 302.489)"/><ellipse class="c" cx="2.369" cy="2.364" rx="2.369" ry="2.364" transform="translate(3933.428 302.489)"/><ellipse class="c" cx="2.369" cy="2.364" rx="2.369" ry="2.364" transform="translate(3862.194 318.223)"/><ellipse class="c" cx="2.369" cy="2.364" rx="2.369" ry="2.364" transform="translate(3876.441 318.223)"/><ellipse class="c" cx="2.369" cy="2.364" rx="2.369" ry="2.364" transform="translate(3890.688 318.223)"/><ellipse class="c" cx="2.369" cy="2.364" rx="2.369" ry="2.364" transform="translate(3904.934 318.223)"/><ellipse class="c" cx="2.369" cy="2.364" rx="2.369" ry="2.364" transform="translate(3919.181 318.223)"/><ellipse class="c" cx="2.369" cy="2.364" rx="2.369" ry="2.364" transform="translate(3933.428 318.223)"/><ellipse class="c" cx="2.369" cy="2.364" rx="2.369" ry="2.364" transform="translate(3862.194 335.114)"/><ellipse class="c" cx="2.369" cy="2.364" rx="2.369" ry="2.364" transform="translate(3876.441 335.114)"/><ellipse class="c" cx="2.369" cy="2.364" rx="2.369" ry="2.364" transform="translate(3890.688 335.114)"/><ellipse class="c" cx="2.369" cy="2.364" rx="2.369" ry="2.364" transform="translate(3904.934 335.114)"/><ellipse class="c" cx="2.369" cy="2.364" rx="2.369" ry="2.364" transform="translate(3919.181 335.114)"/><ellipse class="c" cx="2.369" cy="2.364" rx="2.369" ry="2.364" transform="translate(3933.428 335.114)"/><ellipse class="c" cx="2.369" cy="2.364" rx="2.369" ry="2.364" transform="translate(3862.194 350.562)"/><ellipse class="c" cx="2.369" cy="2.364" rx="2.369" ry="2.364" transform="translate(3876.441 350.562)"/><ellipse class="c" cx="2.369" cy="2.364" rx="2.369" ry="2.364" transform="translate(3890.688 350.562)"/><ellipse class="c" cx="2.369" cy="2.364" rx="2.369" ry="2.364" transform="translate(3904.934 350.562)"/><ellipse class="c" cx="2.369" cy="2.364" rx="2.369" ry="2.364" transform="translate(3919.181 350.562)"/><ellipse class="c" cx="2.369" cy="2.364" rx="2.369" ry="2.364" transform="translate(3933.428 350.562)"/><ellipse class="c" cx="2.369" cy="2.364" rx="2.369" ry="2.364" transform="translate(3862.194 365.91)"/><ellipse class="c" cx="2.369" cy="2.364" rx="2.369" ry="2.364" transform="translate(3876.441 365.91)"/><ellipse class="c" cx="2.369" cy="2.364" rx="2.369" ry="2.364" transform="translate(3890.688 365.91)"/><ellipse class="c" cx="2.369" cy="2.364" rx="2.369" ry="2.364" transform="translate(3904.934 365.91)"/><ellipse class="c" cx="2.369" cy="2.364" rx="2.369" ry="2.364" transform="translate(3919.181 365.91)"/><ellipse class="c" cx="2.369" cy="2.364" rx="2.369" ry="2.364" transform="translate(3933.428 365.91)"/><ellipse class="c" cx="2.369" cy="2.364" rx="2.369" ry="2.364" transform="translate(3862.194 381.258)"/><ellipse class="c" cx="2.369" cy="2.364" rx="2.369" ry="2.364" transform="translate(3876.441 381.258)"/><ellipse class="c" cx="2.369" cy="2.364" rx="2.369" ry="2.364" transform="translate(3890.688 381.258)"/><ellipse class="c" cx="2.369" cy="2.364" rx="2.369" ry="2.364" transform="translate(3904.934 381.258)"/><ellipse class="c" cx="2.369" cy="2.364" rx="2.369" ry="2.364" transform="translate(3919.181 381.258)"/><ellipse class="c" cx="2.369" cy="2.364" rx="2.369" ry="2.364" transform="translate(3933.428 381.258)"/><ellipse class="c" cx="2.369" cy="2.364" rx="2.369" ry="2.364" transform="translate(3949.221 207.986)"/><ellipse class="c" cx="2.369" cy="2.364" rx="2.369" ry="2.364" transform="translate(3963.468 207.986)"/><ellipse class="c" cx="2.369" cy="2.364" rx="2.369" ry="2.364" transform="translate(3977.714 207.986)"/><ellipse class="c" cx="2.369" cy="2.364" rx="2.369" ry="2.364" transform="translate(3991.961 207.986)"/><ellipse class="c" cx="2.369" cy="2.364" rx="2.369" ry="2.364" transform="translate(4006.208 207.986)"/><ellipse class="c" cx="2.369" cy="2.364" rx="2.369" ry="2.364" transform="translate(4020.455 207.986)"/><ellipse class="c" cx="2.369" cy="2.364" rx="2.369" ry="2.364" transform="translate(3949.221 223.72)"/><ellipse class="c" cx="2.369" cy="2.364" rx="2.369" ry="2.364" transform="translate(3963.468 223.72)"/><ellipse class="c" cx="2.369" cy="2.364" rx="2.369" ry="2.364" transform="translate(3977.714 223.72)"/><ellipse class="c" cx="2.369" cy="2.364" rx="2.369" ry="2.364" transform="translate(3991.961 223.72)"/><ellipse class="c" cx="2.369" cy="2.364" rx="2.369" ry="2.364" transform="translate(4006.208 223.72)"/><ellipse class="c" cx="2.369" cy="2.364" rx="2.369" ry="2.364" transform="translate(4020.455 223.72)"/><ellipse class="c" cx="2.369" cy="2.364" rx="2.369" ry="2.364" transform="translate(3949.221 240.611)"/><ellipse class="c" cx="2.369" cy="2.364" rx="2.369" ry="2.364" transform="translate(3963.468 240.611)"/><ellipse class="c" cx="2.369" cy="2.364" rx="2.369" ry="2.364" transform="translate(3977.714 240.611)"/><ellipse class="c" cx="2.369" cy="2.364" rx="2.369" ry="2.364" transform="translate(3991.961 240.611)"/><ellipse class="c" cx="2.369" cy="2.364" rx="2.369" ry="2.364" transform="translate(4006.208 240.611)"/><ellipse class="c" cx="2.369" cy="2.364" rx="2.369" ry="2.364" transform="translate(4020.455 240.611)"/><ellipse class="c" cx="2.369" cy="2.364" rx="2.369" ry="2.364" transform="translate(3949.221 256.059)"/><ellipse class="c" cx="2.369" cy="2.364" rx="2.369" ry="2.364" transform="translate(3963.468 256.059)"/><ellipse class="c" cx="2.369" cy="2.364" rx="2.369" ry="2.364" transform="translate(3977.714 256.059)"/><ellipse class="c" cx="2.369" cy="2.364" rx="2.369" ry="2.364" transform="translate(3991.961 256.059)"/><ellipse class="c" cx="2.369" cy="2.364" rx="2.369" ry="2.364" transform="translate(4006.208 256.059)"/><ellipse class="c" cx="2.369" cy="2.364" rx="2.369" ry="2.364" transform="translate(4020.455 256.059)"/><ellipse class="c" cx="2.369" cy="2.364" rx="2.369" ry="2.364" transform="translate(3949.221 271.407)"/><ellipse class="c" cx="2.369" cy="2.364" rx="2.369" ry="2.364" transform="translate(3963.468 271.407)"/><ellipse class="c" cx="2.369" cy="2.364" rx="2.369" ry="2.364" transform="translate(3977.714 271.407)"/><ellipse class="c" cx="2.369" cy="2.364" rx="2.369" ry="2.364" transform="translate(3991.961 271.407)"/><ellipse class="c" cx="2.369" cy="2.364" rx="2.369" ry="2.364" transform="translate(4006.208 271.407)"/><ellipse class="c" cx="2.369" cy="2.364" rx="2.369" ry="2.364" transform="translate(4020.455 271.407)"/><ellipse class="c" cx="2.369" cy="2.364" rx="2.369" ry="2.364" transform="translate(3949.221 286.755)"/><ellipse class="c" cx="2.369" cy="2.364" rx="2.369" ry="2.364" transform="translate(3963.468 286.755)"/><ellipse class="c" cx="2.369" cy="2.364" rx="2.369" ry="2.364" transform="translate(3977.714 286.755)"/><ellipse class="c" cx="2.413" cy="2.407" rx="2.413" ry="2.407" transform="translate(3991.961 286.755)"/><ellipse class="c" cx="2.369" cy="2.364" rx="2.369" ry="2.364" transform="translate(4006.208 286.755)"/><ellipse class="c" cx="2.369" cy="2.364" rx="2.369" ry="2.364" transform="translate(4020.455 286.755)"/><ellipse class="c" cx="2.369" cy="2.364" rx="2.369" ry="2.364" transform="translate(3862.194 207.986)"/><ellipse class="c" cx="2.369" cy="2.364" rx="2.369" ry="2.364" transform="translate(3876.441 207.986)"/><ellipse class="c" cx="2.369" cy="2.364" rx="2.369" ry="2.364" transform="translate(3890.688 207.986)"/><ellipse class="c" cx="2.369" cy="2.364" rx="2.369" ry="2.364" transform="translate(3904.934 207.986)"/><ellipse class="c" cx="2.369" cy="2.364" rx="2.369" ry="2.364" transform="translate(3919.181 207.986)"/><ellipse class="c" cx="2.369" cy="2.364" rx="2.369" ry="2.364" transform="translate(3933.428 207.986)"/><ellipse class="c" cx="2.369" cy="2.364" rx="2.369" ry="2.364" transform="translate(3862.194 223.72)"/><ellipse class="c" cx="2.369" cy="2.364" rx="2.369" ry="2.364" transform="translate(3876.441 223.72)"/><ellipse class="c" cx="2.369" cy="2.364" rx="2.369" ry="2.364" transform="translate(3890.688 223.72)"/><ellipse class="c" cx="2.369" cy="2.364" rx="2.369" ry="2.364" transform="translate(3904.934 223.72)"/><ellipse class="c" cx="2.369" cy="2.364" rx="2.369" ry="2.364" transform="translate(3919.181 223.72)"/><ellipse class="c" cx="2.369" cy="2.364" rx="2.369" ry="2.364" transform="translate(3933.428 223.72)"/><ellipse class="c" cx="2.369" cy="2.364" rx="2.369" ry="2.364" transform="translate(3862.194 240.611)"/><ellipse class="c" cx="2.369" cy="2.364" rx="2.369" ry="2.364" transform="translate(3876.441 240.611)"/><ellipse class="c" cx="2.369" cy="2.364" rx="2.369" ry="2.364" transform="translate(3890.688 240.611)"/><ellipse class="c" cx="2.369" cy="2.364" rx="2.369" ry="2.364" transform="translate(3904.934 240.611)"/><ellipse class="c" cx="2.369" cy="2.364" rx="2.369" ry="2.364" transform="translate(3919.181 240.611)"/><ellipse class="c" cx="2.369" cy="2.364" rx="2.369" ry="2.364" transform="translate(3933.428 240.611)"/><ellipse class="c" cx="2.369" cy="2.364" rx="2.369" ry="2.364" transform="translate(3862.194 256.059)"/><ellipse class="c" cx="2.369" cy="2.364" rx="2.369" ry="2.364" transform="translate(3876.441 256.059)"/><ellipse class="c" cx="2.369" cy="2.364" rx="2.369" ry="2.364" transform="translate(3890.688 256.059)"/><ellipse class="c" cx="2.369" cy="2.364" rx="2.369" ry="2.364" transform="translate(3904.934 256.059)"/><ellipse class="c" cx="2.369" cy="2.364" rx="2.369" ry="2.364" transform="translate(3919.181 256.059)"/><ellipse class="c" cx="2.369" cy="2.364" rx="2.369" ry="2.364" transform="translate(3933.428 256.059)"/><ellipse class="c" cx="2.369" cy="2.364" rx="2.369" ry="2.364" transform="translate(3862.194 271.407)"/><ellipse class="c" cx="2.369" cy="2.364" rx="2.369" ry="2.364" transform="translate(3876.441 271.407)"/><ellipse class="c" cx="2.369" cy="2.364" rx="2.369" ry="2.364" transform="translate(3890.688 271.407)"/><ellipse class="c" cx="2.369" cy="2.364" rx="2.369" ry="2.364" transform="translate(3904.934 271.407)"/><ellipse class="c" cx="2.369" cy="2.364" rx="2.369" ry="2.364" transform="translate(3919.181 271.407)"/><ellipse class="c" cx="2.369" cy="2.364" rx="2.369" ry="2.364" transform="translate(3933.428 271.407)"/><ellipse class="c" cx="2.369" cy="2.364" rx="2.369" ry="2.364" transform="translate(3862.194 286.755)"/><ellipse class="c" cx="2.369" cy="2.364" rx="2.369" ry="2.364" transform="translate(3876.441 286.755)"/><ellipse class="c" cx="2.369" cy="2.364" rx="2.369" ry="2.364" transform="translate(3890.688 286.755)"/><ellipse class="c" cx="2.369" cy="2.364" rx="2.369" ry="2.364" transform="translate(3904.934 286.755)"/><ellipse class="c" cx="2.369" cy="2.364" rx="2.369" ry="2.364" transform="translate(3919.181 286.755)"/><ellipse class="c" cx="2.369" cy="2.364" rx="2.369" ry="2.364" transform="translate(3933.428 286.755)"/></g></g></svg>