<svg xmlns="http://www.w3.org/2000/svg" xmlns:xlink="http://www.w3.org/1999/xlink" width="243.28" height="224.453" viewBox="0 0 243.28 224.453"><defs><style>.a{fill:none;}.b{fill:#59c0ea;}.c{clip-path:url(#a);}.d{fill:#f5bf00;}.e{fill:#f0cb30;stroke:#f0cb30;stroke-width:20px;}.f{stroke:none;}</style><clipPath id="a"><ellipse class="a" cx="101.554" cy="101.118" rx="101.554" ry="101.118" transform="translate(5294.581 313.153)"/></clipPath></defs><g transform="translate(-1216.72 -581)"><g transform="translate(-4077.86 290.064)"><g class="c"><ellipse class="d" cx="3.241" cy="3.227" rx="3.241" ry="3.227" transform="translate(5402.922 412.949)"/><ellipse class="d" cx="3.241" cy="3.227" rx="3.241" ry="3.227" transform="translate(5422.413 412.949)"/><ellipse class="d" cx="3.241" cy="3.227" rx="3.241" ry="3.227" transform="translate(5441.904 412.949)"/><ellipse class="d" cx="3.241" cy="3.227" rx="3.241" ry="3.227" transform="translate(5461.395 412.949)"/><ellipse class="d" cx="3.241" cy="3.227" rx="3.241" ry="3.227" transform="translate(5480.886 412.949)"/><ellipse class="d" cx="3.241" cy="3.227" rx="3.241" ry="3.227" transform="translate(5500.377 412.949)"/><ellipse class="d" cx="3.241" cy="3.227" rx="3.241" ry="3.227" transform="translate(5402.922 434.428)"/><ellipse class="d" cx="3.241" cy="3.227" rx="3.241" ry="3.227" transform="translate(5422.413 434.428)"/><ellipse class="d" cx="3.241" cy="3.227" rx="3.241" ry="3.227" transform="translate(5441.904 434.428)"/><ellipse class="d" cx="3.241" cy="3.227" rx="3.241" ry="3.227" transform="translate(5461.395 434.428)"/><ellipse class="d" cx="3.241" cy="3.227" rx="3.241" ry="3.227" transform="translate(5480.886 434.428)"/><ellipse class="d" cx="3.241" cy="3.227" rx="3.241" ry="3.227" transform="translate(5500.377 434.428)"/><ellipse class="d" cx="3.241" cy="3.227" rx="3.241" ry="3.227" transform="translate(5402.922 457.487)"/><ellipse class="d" cx="3.241" cy="3.227" rx="3.241" ry="3.227" transform="translate(5422.413 457.487)"/><ellipse class="d" cx="3.241" cy="3.227" rx="3.241" ry="3.227" transform="translate(5441.904 457.487)"/><ellipse class="d" cx="3.241" cy="3.227" rx="3.241" ry="3.227" transform="translate(5461.395 457.487)"/><ellipse class="d" cx="3.241" cy="3.227" rx="3.241" ry="3.227" transform="translate(5480.886 457.487)"/><ellipse class="d" cx="3.241" cy="3.227" rx="3.241" ry="3.227" transform="translate(5500.377 457.487)"/><ellipse class="d" cx="3.241" cy="3.227" rx="3.241" ry="3.227" transform="translate(5402.922 478.576)"/><ellipse class="d" cx="3.241" cy="3.227" rx="3.241" ry="3.227" transform="translate(5422.413 478.576)"/><ellipse class="d" cx="3.241" cy="3.227" rx="3.241" ry="3.227" transform="translate(5441.904 478.576)"/><ellipse class="d" cx="3.241" cy="3.227" rx="3.241" ry="3.227" transform="translate(5461.395 478.576)"/><ellipse class="d" cx="3.241" cy="3.227" rx="3.241" ry="3.227" transform="translate(5480.886 478.576)"/><ellipse class="d" cx="3.241" cy="3.227" rx="3.241" ry="3.227" transform="translate(5500.377 478.576)"/><ellipse class="d" cx="3.241" cy="3.227" rx="3.241" ry="3.227" transform="translate(5402.922 499.529)"/><ellipse class="d" cx="3.241" cy="3.227" rx="3.241" ry="3.227" transform="translate(5422.413 499.529)"/><ellipse class="d" cx="3.241" cy="3.227" rx="3.241" ry="3.227" transform="translate(5441.904 499.529)"/><ellipse class="d" cx="3.241" cy="3.227" rx="3.241" ry="3.227" transform="translate(5461.395 499.529)"/><ellipse class="d" cx="3.241" cy="3.227" rx="3.241" ry="3.227" transform="translate(5480.886 499.529)"/><ellipse class="d" cx="3.241" cy="3.227" rx="3.241" ry="3.227" transform="translate(5500.377 499.529)"/><ellipse class="d" cx="3.241" cy="3.227" rx="3.241" ry="3.227" transform="translate(5402.922 520.481)"/><ellipse class="d" cx="3.241" cy="3.227" rx="3.241" ry="3.227" transform="translate(5422.413 520.481)"/><ellipse class="d" cx="3.241" cy="3.227" rx="3.241" ry="3.227" transform="translate(5441.904 520.481)"/><ellipse class="d" cx="3.241" cy="3.227" rx="3.241" ry="3.227" transform="translate(5461.395 520.481)"/><ellipse class="d" cx="3.241" cy="3.227" rx="3.241" ry="3.227" transform="translate(5480.886 520.481)"/><ellipse class="d" cx="3.241" cy="3.227" rx="3.241" ry="3.227" transform="translate(5500.377 520.481)"/><ellipse class="d" cx="3.241" cy="3.227" rx="3.241" ry="3.227" transform="translate(5283.86 412.949)"/><ellipse class="d" cx="3.241" cy="3.227" rx="3.241" ry="3.227" transform="translate(5303.352 412.949)"/><ellipse class="d" cx="3.241" cy="3.227" rx="3.241" ry="3.227" transform="translate(5322.842 412.949)"/><ellipse class="d" cx="3.241" cy="3.227" rx="3.241" ry="3.227" transform="translate(5342.333 412.949)"/><ellipse class="d" cx="3.241" cy="3.227" rx="3.241" ry="3.227" transform="translate(5361.825 412.949)"/><ellipse class="d" cx="3.241" cy="3.227" rx="3.241" ry="3.227" transform="translate(5381.316 412.949)"/><ellipse class="d" cx="3.241" cy="3.227" rx="3.241" ry="3.227" transform="translate(5283.86 434.428)"/><ellipse class="d" cx="3.241" cy="3.227" rx="3.241" ry="3.227" transform="translate(5303.352 434.428)"/><ellipse class="d" cx="3.241" cy="3.227" rx="3.241" ry="3.227" transform="translate(5322.842 434.428)"/><ellipse class="d" cx="3.241" cy="3.227" rx="3.241" ry="3.227" transform="translate(5342.333 434.428)"/><ellipse class="d" cx="3.241" cy="3.227" rx="3.241" ry="3.227" transform="translate(5361.825 434.428)"/><ellipse class="d" cx="3.241" cy="3.227" rx="3.241" ry="3.227" transform="translate(5381.316 434.428)"/><ellipse class="d" cx="3.241" cy="3.227" rx="3.241" ry="3.227" transform="translate(5283.86 457.487)"/><ellipse class="d" cx="3.241" cy="3.227" rx="3.241" ry="3.227" transform="translate(5303.352 457.487)"/><ellipse class="d" cx="3.241" cy="3.227" rx="3.241" ry="3.227" transform="translate(5322.842 457.487)"/><ellipse class="d" cx="3.241" cy="3.227" rx="3.241" ry="3.227" transform="translate(5342.333 457.487)"/><ellipse class="d" cx="3.241" cy="3.227" rx="3.241" ry="3.227" transform="translate(5361.825 457.487)"/><ellipse class="d" cx="3.241" cy="3.227" rx="3.241" ry="3.227" transform="translate(5381.316 457.487)"/><ellipse class="d" cx="3.241" cy="3.227" rx="3.241" ry="3.227" transform="translate(5283.86 478.576)"/><ellipse class="d" cx="3.241" cy="3.227" rx="3.241" ry="3.227" transform="translate(5303.352 478.576)"/><ellipse class="d" cx="3.241" cy="3.227" rx="3.241" ry="3.227" transform="translate(5322.842 478.576)"/><ellipse class="d" cx="3.241" cy="3.227" rx="3.241" ry="3.227" transform="translate(5342.333 478.576)"/><ellipse class="d" cx="3.241" cy="3.227" rx="3.241" ry="3.227" transform="translate(5361.825 478.576)"/><ellipse class="d" cx="3.241" cy="3.227" rx="3.241" ry="3.227" transform="translate(5381.316 478.576)"/><ellipse class="d" cx="3.241" cy="3.227" rx="3.241" ry="3.227" transform="translate(5283.86 499.529)"/><ellipse class="d" cx="3.241" cy="3.227" rx="3.241" ry="3.227" transform="translate(5303.352 499.529)"/><ellipse class="d" cx="3.241" cy="3.227" rx="3.241" ry="3.227" transform="translate(5322.842 499.529)"/><ellipse class="d" cx="3.241" cy="3.227" rx="3.241" ry="3.227" transform="translate(5342.333 499.529)"/><ellipse class="d" cx="3.241" cy="3.227" rx="3.241" ry="3.227" transform="translate(5361.825 499.529)"/><ellipse class="d" cx="3.241" cy="3.227" rx="3.241" ry="3.227" transform="translate(5381.316 499.529)"/><ellipse class="d" cx="3.241" cy="3.227" rx="3.241" ry="3.227" transform="translate(5283.86 520.481)"/><ellipse class="d" cx="3.241" cy="3.227" rx="3.241" ry="3.227" transform="translate(5303.352 520.481)"/><ellipse class="d" cx="3.241" cy="3.227" rx="3.241" ry="3.227" transform="translate(5322.842 520.481)"/><ellipse class="d" cx="3.241" cy="3.227" rx="3.241" ry="3.227" transform="translate(5342.333 520.481)"/><ellipse class="d" cx="3.241" cy="3.227" rx="3.241" ry="3.227" transform="translate(5361.825 520.481)"/><ellipse class="d" cx="3.241" cy="3.227" rx="3.241" ry="3.227" transform="translate(5381.316 520.481)"/><ellipse class="d" cx="3.241" cy="3.227" rx="3.241" ry="3.227" transform="translate(5402.922 283.936)"/><ellipse class="d" cx="3.241" cy="3.227" rx="3.241" ry="3.227" transform="translate(5422.413 283.936)"/><ellipse class="d" cx="3.241" cy="3.227" rx="3.241" ry="3.227" transform="translate(5441.904 283.936)"/><ellipse class="d" cx="3.241" cy="3.227" rx="3.241" ry="3.227" transform="translate(5461.395 283.936)"/><ellipse class="d" cx="3.241" cy="3.227" rx="3.241" ry="3.227" transform="translate(5480.886 283.936)"/><ellipse class="d" cx="3.241" cy="3.227" rx="3.241" ry="3.227" transform="translate(5500.377 283.936)"/><ellipse class="d" cx="3.241" cy="3.227" rx="3.241" ry="3.227" transform="translate(5402.922 305.416)"/><ellipse class="d" cx="3.241" cy="3.227" rx="3.241" ry="3.227" transform="translate(5422.413 305.416)"/><ellipse class="d" cx="3.241" cy="3.227" rx="3.241" ry="3.227" transform="translate(5441.904 305.416)"/><ellipse class="d" cx="3.241" cy="3.227" rx="3.241" ry="3.227" transform="translate(5461.395 305.416)"/><ellipse class="d" cx="3.241" cy="3.227" rx="3.241" ry="3.227" transform="translate(5480.886 305.416)"/><ellipse class="d" cx="3.241" cy="3.227" rx="3.241" ry="3.227" transform="translate(5500.377 305.416)"/><ellipse class="d" cx="3.241" cy="3.227" rx="3.241" ry="3.227" transform="translate(5402.922 328.474)"/><ellipse class="d" cx="3.241" cy="3.227" rx="3.241" ry="3.227" transform="translate(5422.413 328.474)"/><ellipse class="d" cx="3.241" cy="3.227" rx="3.241" ry="3.227" transform="translate(5441.904 328.474)"/><ellipse class="d" cx="3.241" cy="3.227" rx="3.241" ry="3.227" transform="translate(5461.395 328.474)"/><ellipse class="d" cx="3.241" cy="3.227" rx="3.241" ry="3.227" transform="translate(5480.886 328.474)"/><ellipse class="d" cx="3.241" cy="3.227" rx="3.241" ry="3.227" transform="translate(5500.377 328.474)"/><ellipse class="d" cx="3.241" cy="3.227" rx="3.241" ry="3.227" transform="translate(5402.922 349.564)"/><ellipse class="d" cx="3.241" cy="3.227" rx="3.241" ry="3.227" transform="translate(5422.413 349.564)"/><ellipse class="d" cx="3.241" cy="3.227" rx="3.241" ry="3.227" transform="translate(5441.904 349.564)"/><ellipse class="d" cx="3.241" cy="3.227" rx="3.241" ry="3.227" transform="translate(5461.395 349.564)"/><ellipse class="d" cx="3.241" cy="3.227" rx="3.241" ry="3.227" transform="translate(5480.886 349.564)"/><ellipse class="d" cx="3.241" cy="3.227" rx="3.241" ry="3.227" transform="translate(5500.377 349.564)"/><ellipse class="d" cx="3.241" cy="3.227" rx="3.241" ry="3.227" transform="translate(5402.922 370.516)"/><ellipse class="d" cx="3.241" cy="3.227" rx="3.241" ry="3.227" transform="translate(5422.413 370.516)"/><ellipse class="d" cx="3.241" cy="3.227" rx="3.241" ry="3.227" transform="translate(5441.904 370.516)"/><ellipse class="d" cx="3.241" cy="3.227" rx="3.241" ry="3.227" transform="translate(5461.395 370.516)"/><ellipse class="d" cx="3.241" cy="3.227" rx="3.241" ry="3.227" transform="translate(5480.886 370.516)"/><ellipse class="d" cx="3.241" cy="3.227" rx="3.241" ry="3.227" transform="translate(5500.377 370.516)"/><ellipse class="d" cx="3.241" cy="3.227" rx="3.241" ry="3.227" transform="translate(5402.922 391.469)"/><ellipse class="d" cx="3.241" cy="3.227" rx="3.241" ry="3.227" transform="translate(5422.413 391.469)"/><ellipse class="d" cx="3.241" cy="3.227" rx="3.241" ry="3.227" transform="translate(5441.904 391.469)"/><ellipse class="d" cx="3.301" cy="3.286" rx="3.301" ry="3.286" transform="translate(5461.395 391.469)"/><ellipse class="d" cx="3.241" cy="3.227" rx="3.241" ry="3.227" transform="translate(5480.886 391.469)"/><ellipse class="d" cx="3.241" cy="3.227" rx="3.241" ry="3.227" transform="translate(5500.377 391.469)"/><ellipse class="d" cx="3.241" cy="3.227" rx="3.241" ry="3.227" transform="translate(5283.86 283.936)"/><ellipse class="d" cx="3.241" cy="3.227" rx="3.241" ry="3.227" transform="translate(5303.352 283.936)"/><ellipse class="d" cx="3.241" cy="3.227" rx="3.241" ry="3.227" transform="translate(5322.842 283.936)"/><ellipse class="d" cx="3.241" cy="3.227" rx="3.241" ry="3.227" transform="translate(5342.333 283.936)"/><ellipse class="d" cx="3.241" cy="3.227" rx="3.241" ry="3.227" transform="translate(5361.825 283.936)"/><ellipse class="d" cx="3.241" cy="3.227" rx="3.241" ry="3.227" transform="translate(5381.316 283.936)"/><ellipse class="d" cx="3.241" cy="3.227" rx="3.241" ry="3.227" transform="translate(5283.86 305.416)"/><ellipse class="d" cx="3.241" cy="3.227" rx="3.241" ry="3.227" transform="translate(5303.352 305.416)"/><ellipse class="d" cx="3.241" cy="3.227" rx="3.241" ry="3.227" transform="translate(5322.842 305.416)"/><ellipse class="d" cx="3.241" cy="3.227" rx="3.241" ry="3.227" transform="translate(5342.333 305.416)"/><ellipse class="d" cx="3.241" cy="3.227" rx="3.241" ry="3.227" transform="translate(5361.825 305.416)"/><ellipse class="d" cx="3.241" cy="3.227" rx="3.241" ry="3.227" transform="translate(5381.316 305.416)"/><ellipse class="d" cx="3.241" cy="3.227" rx="3.241" ry="3.227" transform="translate(5283.86 328.474)"/><ellipse class="d" cx="3.241" cy="3.227" rx="3.241" ry="3.227" transform="translate(5303.352 328.474)"/><ellipse class="d" cx="3.241" cy="3.227" rx="3.241" ry="3.227" transform="translate(5322.842 328.474)"/><ellipse class="d" cx="3.241" cy="3.227" rx="3.241" ry="3.227" transform="translate(5342.333 328.474)"/><ellipse class="d" cx="3.241" cy="3.227" rx="3.241" ry="3.227" transform="translate(5361.825 328.474)"/><ellipse class="d" cx="3.241" cy="3.227" rx="3.241" ry="3.227" transform="translate(5381.316 328.474)"/><ellipse class="d" cx="3.241" cy="3.227" rx="3.241" ry="3.227" transform="translate(5283.86 349.564)"/><ellipse class="d" cx="3.241" cy="3.227" rx="3.241" ry="3.227" transform="translate(5303.352 349.564)"/><ellipse class="d" cx="3.241" cy="3.227" rx="3.241" ry="3.227" transform="translate(5322.842 349.564)"/><ellipse class="d" cx="3.241" cy="3.227" rx="3.241" ry="3.227" transform="translate(5342.333 349.564)"/><ellipse class="d" cx="3.241" cy="3.227" rx="3.241" ry="3.227" transform="translate(5361.825 349.564)"/><ellipse class="d" cx="3.241" cy="3.227" rx="3.241" ry="3.227" transform="translate(5381.316 349.564)"/><ellipse class="d" cx="3.241" cy="3.227" rx="3.241" ry="3.227" transform="translate(5283.86 370.516)"/><ellipse class="d" cx="3.241" cy="3.227" rx="3.241" ry="3.227" transform="translate(5303.352 370.516)"/><ellipse class="d" cx="3.241" cy="3.227" rx="3.241" ry="3.227" transform="translate(5322.842 370.516)"/><ellipse class="d" cx="3.241" cy="3.227" rx="3.241" ry="3.227" transform="translate(5342.333 370.516)"/><ellipse class="d" cx="3.241" cy="3.227" rx="3.241" ry="3.227" transform="translate(5361.825 370.516)"/><ellipse class="d" cx="3.241" cy="3.227" rx="3.241" ry="3.227" transform="translate(5381.316 370.516)"/><ellipse class="d" cx="3.241" cy="3.227" rx="3.241" ry="3.227" transform="translate(5283.86 391.469)"/><ellipse class="d" cx="3.241" cy="3.227" rx="3.241" ry="3.227" transform="translate(5303.352 391.469)"/><ellipse class="d" cx="3.241" cy="3.227" rx="3.241" ry="3.227" transform="translate(5322.842 391.469)"/><ellipse class="d" cx="3.241" cy="3.227" rx="3.241" ry="3.227" transform="translate(5342.333 391.469)"/><ellipse class="d" cx="3.241" cy="3.227" rx="3.241" ry="3.227" transform="translate(5361.825 391.469)"/><ellipse class="d" cx="3.241" cy="3.227" rx="3.241" ry="3.227" transform="translate(5381.316 391.469)"/></g></g><path class="b" d="M1344.552,792.82a3.242,3.242,0,1,1,3.24,3.227A3.235,3.235,0,0,1,1344.552,792.82Zm-19.491,0a3.242,3.242,0,1,1,3.243,3.227A3.236,3.236,0,0,1,1325.061,792.82Zm-21.605,0a3.242,3.242,0,1,1,3.242,3.227A3.236,3.236,0,0,1,1303.456,792.82Zm-19.491,0a3.242,3.242,0,1,1,3.242,3.227A3.236,3.236,0,0,1,1283.964,792.82Zm80.079,0a3.245,3.245,0,0,1,6.1-1.53q-2.781,1.648-5.675,3.123A3.2,3.2,0,0,1,1364.044,792.82Zm-98.717-2.182a3.245,3.245,0,0,1,5.63,2.182,3.186,3.186,0,0,1-.14.936Q1268.023,792.282,1265.326,790.638Zm118.21-18.77a3.241,3.241,0,1,1,3.24,3.227A3.235,3.235,0,0,1,1383.536,771.868Zm-19.492,0a3.241,3.241,0,1,1,3.241,3.227A3.235,3.235,0,0,1,1364.044,771.868Zm-19.491,0a3.242,3.242,0,1,1,3.24,3.227A3.235,3.235,0,0,1,1344.552,771.868Zm-19.491,0a3.242,3.242,0,1,1,3.243,3.227A3.236,3.236,0,0,1,1325.061,771.868Zm-21.605,0a3.242,3.242,0,1,1,3.242,3.227A3.236,3.236,0,0,1,1303.456,771.868Zm-19.491,0a3.242,3.242,0,1,1,3.242,3.227A3.236,3.236,0,0,1,1283.964,771.868Zm-19.49,0a3.241,3.241,0,1,1,3.242,3.227A3.236,3.236,0,0,1,1264.474,771.868Zm-19.492,0a3.242,3.242,0,1,1,3.242,3.227A3.236,3.236,0,0,1,1244.982,771.868Zm158.045-21.09a3.245,3.245,0,0,1,6.179-1.366q-1.158,2.31-2.429,4.554a3.272,3.272,0,0,1-.508.039A3.233,3.233,0,0,1,1403.026,750.778Zm-19.49,0a3.241,3.241,0,1,1,3.24,3.227A3.232,3.232,0,0,1,1383.536,750.778Zm-19.492,0a3.241,3.241,0,1,1,3.241,3.227A3.232,3.232,0,0,1,1364.044,750.778Zm-19.491,0a3.242,3.242,0,1,1,3.24,3.227A3.233,3.233,0,0,1,1344.552,750.778Zm-19.491,0A3.242,3.242,0,1,1,1328.3,754,3.233,3.233,0,0,1,1325.061,750.778Zm-21.605,0A3.242,3.242,0,1,1,1306.7,754,3.233,3.233,0,0,1,1303.456,750.778Zm-19.491,0a3.242,3.242,0,1,1,3.242,3.227A3.233,3.233,0,0,1,1283.964,750.778Zm-19.49,0a3.241,3.241,0,1,1,3.242,3.227A3.233,3.233,0,0,1,1264.474,750.778Zm-19.492,0a3.242,3.242,0,1,1,3.242,3.227A3.233,3.233,0,0,1,1244.982,750.778Zm-18.225-2.559a3.233,3.233,0,1,1,2.955,5.637Q1228.148,751.09,1226.757,748.22Zm176.27-20.5a3.242,3.242,0,1,1,3.242,3.227A3.235,3.235,0,0,1,1403.026,727.72Zm-19.49,0a3.241,3.241,0,1,1,3.24,3.227A3.234,3.234,0,0,1,1383.536,727.72Zm-19.492,0a3.241,3.241,0,1,1,3.241,3.227A3.235,3.235,0,0,1,1364.044,727.72Zm-19.491,0a3.242,3.242,0,1,1,3.24,3.227A3.235,3.235,0,0,1,1344.552,727.72Zm-19.491,0a3.242,3.242,0,1,1,3.243,3.227A3.235,3.235,0,0,1,1325.061,727.72Zm-21.605,0a3.242,3.242,0,1,1,3.242,3.227A3.235,3.235,0,0,1,1303.456,727.72Zm-19.491,0a3.242,3.242,0,1,1,3.242,3.227A3.235,3.235,0,0,1,1283.964,727.72Zm-19.49,0a3.241,3.241,0,1,1,3.242,3.227A3.235,3.235,0,0,1,1264.474,727.72Zm-19.492,0a3.242,3.242,0,1,1,3.242,3.227A3.235,3.235,0,0,1,1244.982,727.72Zm-19.49,0a3.241,3.241,0,1,1,3.241,3.227A3.235,3.235,0,0,1,1225.491,727.72Zm177.535-21.479a3.242,3.242,0,1,1,3.242,3.227A3.236,3.236,0,0,1,1403.026,706.241Zm-19.49,0a3.241,3.241,0,1,1,3.24,3.227A3.235,3.235,0,0,1,1383.536,706.241Zm-19.492,0a3.241,3.241,0,1,1,3.241,3.227A3.235,3.235,0,0,1,1364.044,706.241Zm-19.491,0a3.242,3.242,0,1,1,3.24,3.227A3.236,3.236,0,0,1,1344.552,706.241Zm-19.491,0a3.242,3.242,0,1,1,3.243,3.227A3.236,3.236,0,0,1,1325.061,706.241Zm-21.605,0a3.242,3.242,0,1,1,3.242,3.227A3.236,3.236,0,0,1,1303.456,706.241Zm-19.491,0a3.242,3.242,0,1,1,3.242,3.227A3.236,3.236,0,0,1,1283.964,706.241Zm-19.49,0a3.241,3.241,0,1,1,3.242,3.227A3.236,3.236,0,0,1,1264.474,706.241Zm-19.492,0a3.242,3.242,0,1,1,3.242,3.227A3.236,3.236,0,0,1,1244.982,706.241Zm-19.49,0a3.241,3.241,0,1,1,3.241,3.227A3.236,3.236,0,0,1,1225.491,706.241Zm158.045-21.422a3.3,3.3,0,1,1,3.3,3.286A3.294,3.294,0,0,1,1383.536,684.819Zm19.49-.059a3.242,3.242,0,1,1,3.242,3.227A3.235,3.235,0,0,1,1403.026,684.76Zm-38.983,0a3.241,3.241,0,1,1,3.241,3.227A3.235,3.235,0,0,1,1364.044,684.76Zm-19.491,0a3.242,3.242,0,1,1,3.24,3.227A3.235,3.235,0,0,1,1344.552,684.76Zm-19.491,0a3.242,3.242,0,1,1,3.243,3.227A3.236,3.236,0,0,1,1325.061,684.76Zm-21.605,0a3.242,3.242,0,1,1,3.242,3.227A3.236,3.236,0,0,1,1303.456,684.76Zm-19.491,0a3.242,3.242,0,1,1,3.242,3.227A3.236,3.236,0,0,1,1283.964,684.76Zm-19.49,0a3.241,3.241,0,1,1,3.242,3.227A3.236,3.236,0,0,1,1264.474,684.76Zm-19.492,0a3.242,3.242,0,1,1,3.242,3.227A3.236,3.236,0,0,1,1244.982,684.76Zm-19.49,0a3.241,3.241,0,1,1,3.241,3.227A3.236,3.236,0,0,1,1225.491,684.76Zm177.535-20.952a3.242,3.242,0,1,1,3.242,3.227A3.234,3.234,0,0,1,1403.026,663.809Zm-19.49,0a3.241,3.241,0,1,1,3.24,3.227A3.234,3.234,0,0,1,1383.536,663.809Zm-19.492,0a3.241,3.241,0,1,1,3.241,3.227A3.234,3.234,0,0,1,1364.044,663.809Zm-19.491,0a3.242,3.242,0,1,1,3.24,3.227A3.234,3.234,0,0,1,1344.552,663.809Zm-19.491,0a3.242,3.242,0,1,1,3.243,3.227A3.235,3.235,0,0,1,1325.061,663.809Zm-21.605,0a3.242,3.242,0,1,1,3.242,3.227A3.235,3.235,0,0,1,1303.456,663.809Zm-19.491,0a3.242,3.242,0,1,1,3.242,3.227A3.235,3.235,0,0,1,1283.964,663.809Zm-19.49,0a3.241,3.241,0,1,1,3.242,3.227A3.235,3.235,0,0,1,1264.474,663.809Zm-19.492,0a3.242,3.242,0,1,1,3.242,3.227A3.235,3.235,0,0,1,1244.982,663.809Zm-19.49,0a3.214,3.214,0,0,1,.151-.978c.1-.231.213-.468.319-.7a3.225,3.225,0,1,1-.471,1.677Zm158.045-20.954a3.241,3.241,0,1,1,3.24,3.228A3.234,3.234,0,0,1,1383.536,642.855Zm-19.492,0a3.241,3.241,0,1,1,3.241,3.228A3.234,3.234,0,0,1,1364.044,642.855Zm-19.491,0a3.242,3.242,0,1,1,3.24,3.228A3.235,3.235,0,0,1,1344.552,642.855Zm-19.491,0a3.242,3.242,0,1,1,3.243,3.228A3.235,3.235,0,0,1,1325.061,642.855Zm-21.605,0a3.242,3.242,0,1,1,3.242,3.228A3.235,3.235,0,0,1,1303.456,642.855Zm-19.491,0a3.242,3.242,0,1,1,3.242,3.228A3.235,3.235,0,0,1,1283.964,642.855Zm-19.49,0a3.241,3.241,0,1,1,3.242,3.228A3.235,3.235,0,0,1,1264.474,642.855Zm-19.492,0a3.242,3.242,0,1,1,3.242,3.228A3.235,3.235,0,0,1,1244.982,642.855Zm119.062-21.09a3.241,3.241,0,1,1,3.241,3.228A3.234,3.234,0,0,1,1364.044,621.765Zm-19.491,0a3.242,3.242,0,1,1,3.24,3.228A3.235,3.235,0,0,1,1344.552,621.765Zm-19.491,0a3.242,3.242,0,1,1,3.243,3.228A3.235,3.235,0,0,1,1325.061,621.765Zm-21.605,0a3.242,3.242,0,1,1,3.242,3.228A3.235,3.235,0,0,1,1303.456,621.765Zm-19.491,0a3.242,3.242,0,1,1,3.242,3.228A3.235,3.235,0,0,1,1283.964,621.765Zm-19.49,0a3.241,3.241,0,1,1,3.242,3.228A3.235,3.235,0,0,1,1264.474,621.765Z"/><g class="e" transform="translate(1349 581)"><circle class="f" cx="55.5" cy="55.5" r="55.5"/><circle class="a" cx="55.5" cy="55.5" r="45.5"/></g></g></svg>