<svg xmlns="http://www.w3.org/2000/svg" width="138" height="130" viewBox="0 0 138 130"><defs><style>.a{fill:#090909;fill-rule:evenodd;}.b{fill:#fff;}</style></defs><g transform="translate(-138 -38)"><g transform="translate(82.25 -11.311)"><path class="a" d="M149.563,107.212l4.63-.513-3.8,18.773a21.791,21.791,0,0,0-16.007,4.1,16.66,16.66,0,0,1,12.2-7.411l2.978-14.954Z"/><path class="a" d="M145.418,120.418q2.787-16.569,2.787-16.569-17.709,2.822-13.936,24.778a15.529,15.529,0,0,1,11.148-8.209Z"/><path class="a" d="M100.144,107.212l-4.63-.513,3.8,18.773a21.791,21.791,0,0,1,16.007,4.1,16.661,16.661,0,0,0-12.2-7.411l-2.978-14.954Z"/><path class="a" d="M104.29,120.418,101.5,103.848q17.71,2.822,13.936,24.778a15.529,15.529,0,0,0-11.148-8.209Z"/><path class="a" d="M135.009,134.387a22.016,22.016,0,0,1-10.156-5.684,22.011,22.011,0,0,1-10.156,5.684q10.481-25.52-11.726-39.621A27.54,27.54,0,0,1,124.853,108.6a27.541,27.541,0,0,1,21.882-13.833q-22.207,14.1-11.726,39.621Z"/><path class="a" d="M124.854,86.12a5.568,5.568,0,1,1-5.518,5.567,5.543,5.543,0,0,1,5.518-5.567Z"/><path class="a" d="M121.238,80.622H143.5v2.842h-3.136l-2.79,12.088a27.544,27.544,0,0,0-3.3,1.749l3.193-13.837H112.238L115.431,97.3a27.571,27.571,0,0,0-3.3-1.749l-2.79-12.088H106.21V80.622Z"/><path class="a" d="M124.854,69.643l-8.271,6.309h-3.456l-.546-.912h-1.045v3.876h26.635V75.04h-1.045l-.546.912h-3.456l-8.271-6.309Z"/><path class="a" d="M82.856,92.472V90.9H97.319v1.571Zm77.979-22.654.778,1.361-12.525,7.3-.778-1.36,12.525-7.3ZM166.851,90.9v1.571H152.388V90.9ZM145.178,54.6l1.348.785-7.231,12.638-1.348-.785L145.178,54.6Zm-21.1-5.285h1.557V63.9h-1.557V49.311Zm-20.894,6.07,1.348-.785,7.231,12.638-1.348.785-7.231-12.638Zm-15.087,15.8.778-1.361,12.526,7.3-.779,1.36-12.525-7.3Z"/><path class="a" d="M55.751,168.4H67.331v-3.553H59.959V149.691H55.751V168.4Zm28.071-4.8,1.43,4.8h4.511l-5.749-18.707h-5.5L72.845,168.4h4.346l1.321-4.8Zm-4.7-3.164,1.1-3.969c.3-1.083.578-2.5.853-3.608h.055c.275,1.11.605,2.5.935,3.608l1.155,3.969Zm21.194,7.966v-5.634c0-3.053-.055-5.69-.165-8.161l.082-.028a69.8,69.8,0,0,0,3.218,6.606l3.961,7.216h4.4V149.691h-3.851v5.44a70.214,70.214,0,0,0,.358,7.827h-.083a54.471,54.471,0,0,0-3.026-6.411l-3.851-6.856h-4.9V168.4Zm22.927,0h4.209V153.244h5.061v-3.553H118.258v3.553h4.979V168.4Zm26.75-11.352h-6.822v-3.886H150.4v-3.469H138.957V168.4h11.829V164.93h-7.62v-4.441h6.822v-3.442Zm7.88,11.352h4.154v-7.355h1.265c1.705.028,2.5.666,3,3a23.544,23.544,0,0,0,1.293,4.358h4.291c-.357-.721-.935-3.164-1.513-5.274-.468-1.721-1.183-2.97-2.476-3.5v-.083a4.96,4.96,0,0,0,3.274-4.608,4.767,4.767,0,0,0-1.706-3.914c-1.32-1.055-3.246-1.471-6-1.471a36.53,36.53,0,0,0-5.584.389V168.4Zm4.154-15.571a10.383,10.383,0,0,1,1.9-.139c1.926.028,3.081.888,3.081,2.609,0,1.638-1.238,2.693-3.328,2.693h-1.651v-5.163ZM182.252,168.4v-5.634c0-3.053-.055-5.69-.165-8.161l.083-.028a69.7,69.7,0,0,0,3.218,6.606l3.961,7.216h4.4V149.691H189.9v5.44a70.214,70.214,0,0,0,.358,7.827h-.083a54.41,54.41,0,0,0-3.026-6.411l-3.851-6.856h-4.9V168.4Z"/><path class="a" d="M55.751,179.226H56.9v-1.848c.107.008.244.023.4.023a2.369,2.369,0,0,0,1.664-.555,1.643,1.643,0,0,0,.473-1.232,1.522,1.522,0,0,0-.55-1.2A2.451,2.451,0,0,0,57.323,174a9.588,9.588,0,0,0-1.572.108v5.121Zm1.152-4.3a2.531,2.531,0,0,1,.465-.038c.6,0,.923.285.923.77,0,.524-.381.839-1,.839a2.428,2.428,0,0,1-.389-.023v-1.548Zm7.6-.886v2.911c0,1.656.763,2.364,2.061,2.364,1.343,0,2.145-.747,2.145-2.349v-2.926h-1.16v3c0,.909-.335,1.332-.946,1.332-.595,0-.931-.447-.931-1.332v-3Zm9.543,5.167a8.933,8.933,0,0,0,1.259.077,3.225,3.225,0,0,0,2.022-.469,1.387,1.387,0,0,0,.534-1.1,1.3,1.3,0,0,0-1.023-1.278v-.015a1.172,1.172,0,0,0,.847-1.109,1.131,1.131,0,0,0-.618-1.016A2.819,2.819,0,0,0,75.554,174a9.2,9.2,0,0,0-1.5.108v5.1Zm1.152-4.32a3.15,3.15,0,0,1,.5-.031c.527,0,.824.208.824.6s-.328.639-.939.639H75.2v-1.209Zm0,2.048h.4c.58,0,1.045.208,1.045.732,0,.539-.465.747-.992.747a3.549,3.549,0,0,1-.45-.016v-1.463Zm7.788,2.295H86.2v-.986H84.159v-4.2H82.991v5.19Zm8.23-5.19v5.19h1.168v-5.19Zm6.308,4.951a3.328,3.328,0,0,0,1.458.323c1.412,0,2.076-.747,2.076-1.617,0-.732-.428-1.209-1.335-1.548-.664-.254-.954-.4-.954-.732,0-.269.244-.5.748-.5a2.43,2.43,0,0,1,1.076.246l.259-.947a3.138,3.138,0,0,0-1.312-.254c-1.213,0-1.946.67-1.946,1.555,0,.755.557,1.232,1.412,1.532.618.223.862.408.862.731,0,.339-.282.563-.817.563a2.944,2.944,0,0,1-1.29-.324l-.237.97Zm8.651-4.951v5.19h1.167v-2.171h1.916v2.171h1.16v-5.19h-1.16v1.995h-1.916v-1.995Zm9.589,0v5.19h1.168v-5.19Zm7.574,5.19v-1.563c0-.847-.015-1.579-.046-2.264l.023-.007a19.326,19.326,0,0,0,.893,1.832l1.1,2h1.221v-5.19h-1.068v1.509a19.507,19.507,0,0,0,.1,2.171h-.023a15.127,15.127,0,0,0-.84-1.779l-1.069-1.9h-1.358v5.19Zm12.825-2.972h-1.916v.916h.794v1.086a1.683,1.683,0,0,1-2.19-1.625,1.563,1.563,0,0,1,1.7-1.679,2.824,2.824,0,0,1,1.2.223l.244-.939a3.512,3.512,0,0,0-1.427-.254,2.664,2.664,0,0,0-2.938,2.711,2.521,2.521,0,0,0,.725,1.887,2.852,2.852,0,0,0,2.091.7,5.706,5.706,0,0,0,1.717-.293v-2.733Zm11.405,2.972c-.32-.346-.618-.685-.908-1.016a3.9,3.9,0,0,0,.855-1.972h-1.038a3.422,3.422,0,0,1-.435,1.263c-.252-.262-.565-.639-.862-.971l.008-.031c.71-.362,1.015-.809,1.015-1.332a1.256,1.256,0,0,0-1.4-1.217,1.416,1.416,0,0,0-1.542,1.37,1.577,1.577,0,0,0,.389,1v.031a1.641,1.641,0,0,0-.977,1.486c0,.724.55,1.47,1.793,1.47a2.242,2.242,0,0,0,1.412-.454c.122.138.229.254.336.37Zm-2.938-.762a.81.81,0,0,1-.855-.816.866.866,0,0,1,.4-.716c.42.478.84.947,1.16,1.271a1.032,1.032,0,0,1-.71.262Zm.138-3.781a.472.472,0,0,1,.45.516c0,.3-.191.5-.565.762a1.111,1.111,0,0,1-.351-.747.49.49,0,0,1,.466-.531Zm13.649,4.543h1.137l-.282-5.19h-1.519l-.55,1.725c-.176.578-.343,1.286-.489,1.887H156.7c-.114-.608-.267-1.286-.435-1.879l-.5-1.733h-1.549l-.328,5.19h1.076l.092-1.971c.038-.647.061-1.448.091-2.148h.015c.122.678.3,1.417.465,2.033l.542,2h.916l.626-2.018c.191-.6.412-1.355.572-2.017h.023c0,.754.022,1.509.046,2.133l.076,1.987Zm9.421-3.149h-1.893V175h2.007v-.962h-3.175v5.19h3.282v-.963h-2.114v-1.232h1.893v-.955Zm5.346,3.126a10,10,0,0,0,1.32.077,3.668,3.668,0,0,0,2.373-.67,2.642,2.642,0,0,0,.855-2.1,2.3,2.3,0,0,0-.87-1.956A3.287,3.287,0,0,0,174.76,174a10.309,10.309,0,0,0-1.572.108v5.1Zm1.168-4.258a2.4,2.4,0,0,1,.527-.046,1.482,1.482,0,0,1,1.618,1.648,1.6,1.6,0,0,1-1.74,1.817,2.16,2.16,0,0,1-.4-.023v-3.4Zm8.474-.909v5.19H184v-5.19Zm9.177,3.858.4,1.332h1.252l-1.6-5.19h-1.526l-1.572,5.19h1.206l.367-1.332Zm-1.305-.878.305-1.1c.084-.3.16-.693.237-1h.015c.077.308.168.693.26,1l.321,1.1Z"/></g><path class="b" d="M224.93,166.529a1.641,1.641,0,0,1,.977-1.486v-.031a1.575,1.575,0,0,1-.39-1,1.416,1.416,0,0,1,1.542-1.371,1.257,1.257,0,0,1,1.4,1.217c0,.524-.305.97-1.015,1.332l-.008.031c.3.33.611.708.863.97a3.42,3.42,0,0,0,.435-1.264h1.038a3.9,3.9,0,0,1-.855,1.972c.291.331.588.67.908,1.016h-1.35c-.107-.115-.214-.231-.337-.369a2.24,2.24,0,0,1-1.411.454C225.48,168,224.93,167.252,224.93,166.529Zm1.1-.193a.81.81,0,0,0,.855.816,1.031,1.031,0,0,0,.71-.262c-.321-.323-.741-.793-1.16-1.271A.866.866,0,0,0,226.029,166.336Zm.527-2.433a1.11,1.11,0,0,0,.351.746c.374-.262.565-.462.565-.761a.473.473,0,0,0-.45-.517A.49.49,0,0,0,226.555,163.9Zm-46.777,3.773.237-.97a2.944,2.944,0,0,0,1.29.324c.535,0,.817-.224.817-.562s-.245-.508-.863-.732c-.854-.3-1.411-.778-1.411-1.533,0-.886.733-1.555,1.946-1.555a3.138,3.138,0,0,1,1.312.254l-.258.948a2.434,2.434,0,0,0-1.076-.247c-.5,0-.748.231-.748.5,0,.331.29.477.954.732.907.338,1.336.816,1.336,1.548,0,.869-.664,1.616-2.076,1.616A3.33,3.33,0,0,1,179.778,167.676Zm-33.021-2.041v-2.911h1.167v3c0,.886.337,1.333.931,1.333.611,0,.946-.424.946-1.333v-3h1.161v2.927c0,1.6-.8,2.348-2.146,2.348C147.52,168,146.757,167.291,146.757,165.635Zm108.68,2.257v-5.1a10.3,10.3,0,0,1,1.571-.107,3.291,3.291,0,0,1,2.107.554,2.305,2.305,0,0,1,.869,1.956,2.644,2.644,0,0,1-.854,2.1,3.669,3.669,0,0,1-2.374.67A10.121,10.121,0,0,1,255.437,167.892Zm1.167-4.259v3.4a2.178,2.178,0,0,0,.4.022,1.6,1.6,0,0,0,1.741-1.817,1.482,1.482,0,0,0-1.618-1.648A2.391,2.391,0,0,0,256.6,163.633Zm-42,3.635a2.522,2.522,0,0,1-.725-1.887,2.664,2.664,0,0,1,2.938-2.71,3.516,3.516,0,0,1,1.427.254l-.244.94a2.828,2.828,0,0,0-1.2-.223,1.691,1.691,0,0,0-.085,3.38,1.527,1.527,0,0,0,.572-.077v-1.085H216.5v-.916h1.916v2.733a5.709,5.709,0,0,1-1.717.293A2.85,2.85,0,0,1,214.609,167.269Zm-58.308.624v-5.1a9.241,9.241,0,0,1,1.5-.107,2.823,2.823,0,0,1,1.519.292A1.13,1.13,0,0,1,159.94,164a1.17,1.17,0,0,1-.847,1.109v.015a1.3,1.3,0,0,1,1.023,1.279,1.387,1.387,0,0,1-.535,1.1,3.222,3.222,0,0,1-2.022.47A9.044,9.044,0,0,1,156.3,167.892Zm1.152-.809a3.455,3.455,0,0,0,.45.016c.527,0,.993-.209.993-.748,0-.523-.465-.732-1.046-.732h-.4Zm0-3.511v1.209h.382c.61,0,.939-.254.939-.639s-.3-.6-.824-.6A3.171,3.171,0,0,0,157.452,163.572Zm117.2,4.342-.4-1.332h-1.472l-.367,1.332h-1.206l1.573-5.19h1.526l1.6,5.19Zm-1.4-3.311-.305,1.1h1.137l-.32-1.1c-.091-.308-.183-.693-.259-1h-.015C273.416,163.911,273.341,164.3,273.256,164.6Zm-8.177,3.311v-5.19h1.168v5.19Zm-18.049,0v-5.19h3.175v.963H248.2v1.078h1.893v.955H248.2v1.232h2.114v.962Zm-6.36,0-.077-1.986c-.022-.624-.045-1.379-.045-2.133h-.023c-.16.662-.382,1.417-.572,2.017l-.626,2.018h-.916l-.542-2c-.168-.617-.344-1.355-.465-2.033h-.015c-.031.7-.054,1.5-.092,2.148l-.092,1.971h-1.076l.328-5.19h1.55l.5,1.733c.168.593.321,1.27.436,1.878h.022c.145-.6.313-1.309.489-1.886l.549-1.725h1.519l.283,5.19Zm-33.109,0-1.1-2a19.183,19.183,0,0,1-.894-1.831l-.022.007c.031.685.046,1.417.046,2.264v1.563h-1.068v-5.19h1.358l1.068,1.9a14.92,14.92,0,0,1,.84,1.778h.023a19.441,19.441,0,0,1-.1-2.172v-1.509h1.068v5.19Zm-9.544,0v-5.19h1.168v5.19Zm-6.505,0v-2.172H189.6v2.172h-1.167v-5.19H189.6v2h1.916v-2h1.16v5.19Zm-18.041,0v-5.19h1.168v5.19Zm-8.23,0v-5.19h1.168v4.2h2.045v.986Zm-27.24,0v-5.121a9.642,9.642,0,0,1,1.572-.107,2.448,2.448,0,0,1,1.571.416,1.522,1.522,0,0,1,.55,1.2,1.644,1.644,0,0,1-.472,1.232,2.372,2.372,0,0,1-1.664.554c-.16,0-.3-.015-.4-.022v1.848Zm1.153-4.3v1.548a2.426,2.426,0,0,0,.389.023c.618,0,1-.316,1-.84,0-.485-.321-.769-.923-.769A2.546,2.546,0,0,0,139.153,163.61ZM271.6,157.088l-3.961-7.216a69.524,69.524,0,0,1-3.218-6.607l-.083.028c.11,2.471.166,5.107.166,8.161v5.634H260.65V138.38h4.9l3.851,6.856a54.481,54.481,0,0,1,3.026,6.411h.083a70.148,70.148,0,0,1-.358-7.827v-5.44H276v18.707Zm-21.771,0a23.467,23.467,0,0,1-1.293-4.358c-.495-2.331-1.292-2.97-3-3h-1.265v7.356h-4.154V138.63a36.59,36.59,0,0,1,5.584-.389c2.75,0,4.676.417,6,1.471a4.766,4.766,0,0,1,1.706,3.914,4.961,4.961,0,0,1-3.273,4.607v.083c1.293.528,2.008,1.777,2.476,3.5.577,2.11,1.155,4.552,1.513,5.274Zm-5.557-15.571v5.162h1.651c2.09,0,3.328-1.055,3.328-2.693,0-1.721-1.156-2.58-3.081-2.609A10.32,10.32,0,0,0,244.271,141.517Zm-23.064,15.571V138.38h11.443v3.469h-7.234v3.885h6.822v3.443h-6.822v4.441h7.619v3.469Zm-15.72,0V141.933h-4.979V138.38h14.25v3.552H209.7v15.155Zm-15.829,0-3.961-7.216a69.523,69.523,0,0,1-3.218-6.607l-.083.028c.11,2.471.166,5.107.166,8.161v5.634h-3.851V138.38h4.9l3.851,6.856a54.482,54.482,0,0,1,3.026,6.411h.083a70.145,70.145,0,0,1-.358-7.827v-5.44h3.851v18.707Zm-22.156,0-1.43-4.8h-5.309l-1.321,4.8h-4.346l5.667-18.707h5.5l5.749,18.707Zm-5.034-11.935-1.1,3.969h4.1l-1.156-3.969c-.329-1.111-.66-2.5-.935-3.609h-.055C163.044,142.655,162.77,144.07,162.467,145.153ZM138,157.088V138.38h4.208v15.154h7.373v3.553Zm69.1-39.7a22,22,0,0,1-10.156,5.684q10.481-25.519-11.726-39.621A27.54,27.54,0,0,1,207.1,97.288a27.54,27.54,0,0,1,21.882-13.834q-22.206,14.1-11.726,39.621A22.009,22.009,0,0,1,207.1,117.392Zm21.731-6.537L231.812,95.9l4.63-.513-3.8,18.774a21.786,21.786,0,0,0-16.007,4.1A16.66,16.66,0,0,1,228.834,110.855Zm-47.267,3.307-3.8-18.774,4.63.513,2.978,14.954a16.66,16.66,0,0,1,12.2,7.411A21.789,21.789,0,0,0,181.567,114.161Zm48.887-21.624s-.929,5.523-2.787,16.57a15.528,15.528,0,0,0-11.148,8.209Q212.745,95.359,230.454,92.537Zm-43.916,16.57q-2.786-16.57-2.787-16.57,17.709,2.822,13.936,24.779A15.526,15.526,0,0,0,186.538,109.107Zm33.179-36.954H194.487l3.193,13.838a27.528,27.528,0,0,0-3.295-1.75L191.6,72.153h-3.137V69.311h37.287v2.842h-3.136l-2.79,12.088a27.539,27.539,0,0,0-3.3,1.75Zm-18.133,8.223a5.518,5.518,0,1,1,5.518,5.567A5.543,5.543,0,0,1,201.585,80.376Zm33.053.785V79.591H249.1v1.571Zm-69.532,0V79.591h14.463v1.571Zm42-13.556H193.785V63.729h1.045l.546.912h3.456l8.27-6.309,8.271,6.309h3.455l.546-.912h1.045v3.876Zm23.457-1.8,12.525-7.3.778,1.361-12.524,7.3Zm-60.216-5.936.778-1.361,12.526,7.3-.779,1.361ZM220.2,55.922l7.232-12.638,1.348.785-7.232,12.638ZM185.43,44.069l1.349-.785,7.231,12.638-1.348.785Zm20.9,8.524V38h1.556V52.593Z"/></g></svg>