<svg xmlns="http://www.w3.org/2000/svg" xmlns:xlink="http://www.w3.org/1999/xlink" width="161.211" height="161.456" viewBox="0 0 161.211 161.456"><defs><style>.a{fill:none;}.b{clip-path:url(#a);}.c{fill:#f5bf00;}</style><clipPath id="a"><ellipse class="a" cx="80.606" cy="80.728" rx="80.606" ry="80.728" transform="translate(4202.425 250.007)"/></clipPath></defs><g transform="translate(-4202.425 -250.007)"><g class="b"><ellipse class="c" cx="2.573" cy="2.577" rx="2.573" ry="2.577" transform="translate(4288.418 329.679)"/><ellipse class="c" cx="2.573" cy="2.577" rx="2.573" ry="2.577" transform="translate(4303.888 329.679)"/><ellipse class="c" cx="2.573" cy="2.577" rx="2.573" ry="2.577" transform="translate(4319.359 329.679)"/><ellipse class="c" cx="2.573" cy="2.577" rx="2.573" ry="2.577" transform="translate(4334.829 329.679)"/><ellipse class="c" cx="2.573" cy="2.577" rx="2.573" ry="2.577" transform="translate(4350.3 329.679)"/><ellipse class="c" cx="2.573" cy="2.577" rx="2.573" ry="2.577" transform="translate(4365.771 329.679)"/><ellipse class="c" cx="2.573" cy="2.577" rx="2.573" ry="2.577" transform="translate(4288.418 346.827)"/><ellipse class="c" cx="2.573" cy="2.577" rx="2.573" ry="2.577" transform="translate(4303.888 346.827)"/><ellipse class="c" cx="2.573" cy="2.577" rx="2.573" ry="2.577" transform="translate(4319.359 346.827)"/><ellipse class="c" cx="2.573" cy="2.577" rx="2.573" ry="2.577" transform="translate(4334.829 346.827)"/><ellipse class="c" cx="2.573" cy="2.577" rx="2.573" ry="2.577" transform="translate(4350.3 346.827)"/><ellipse class="c" cx="2.573" cy="2.577" rx="2.573" ry="2.577" transform="translate(4365.771 346.827)"/><ellipse class="c" cx="2.573" cy="2.577" rx="2.573" ry="2.577" transform="translate(4288.418 365.236)"/><ellipse class="c" cx="2.573" cy="2.577" rx="2.573" ry="2.577" transform="translate(4303.888 365.236)"/><ellipse class="c" cx="2.573" cy="2.577" rx="2.573" ry="2.577" transform="translate(4319.359 365.236)"/><ellipse class="c" cx="2.573" cy="2.577" rx="2.573" ry="2.577" transform="translate(4334.829 365.236)"/><ellipse class="c" cx="2.573" cy="2.577" rx="2.573" ry="2.577" transform="translate(4350.3 365.236)"/><ellipse class="c" cx="2.573" cy="2.577" rx="2.573" ry="2.577" transform="translate(4365.771 365.236)"/><ellipse class="c" cx="2.573" cy="2.577" rx="2.573" ry="2.577" transform="translate(4288.418 382.073)"/><ellipse class="c" cx="2.573" cy="2.577" rx="2.573" ry="2.577" transform="translate(4303.888 382.073)"/><ellipse class="c" cx="2.573" cy="2.577" rx="2.573" ry="2.577" transform="translate(4319.359 382.073)"/><ellipse class="c" cx="2.573" cy="2.577" rx="2.573" ry="2.577" transform="translate(4334.829 382.073)"/><ellipse class="c" cx="2.573" cy="2.577" rx="2.573" ry="2.577" transform="translate(4350.3 382.073)"/><ellipse class="c" cx="2.573" cy="2.577" rx="2.573" ry="2.577" transform="translate(4365.771 382.073)"/><ellipse class="c" cx="2.573" cy="2.577" rx="2.573" ry="2.577" transform="translate(4288.418 398.801)"/><ellipse class="c" cx="2.573" cy="2.577" rx="2.573" ry="2.577" transform="translate(4303.888 398.801)"/><ellipse class="c" cx="2.573" cy="2.577" rx="2.573" ry="2.577" transform="translate(4319.359 398.801)"/><ellipse class="c" cx="2.573" cy="2.577" rx="2.573" ry="2.577" transform="translate(4334.829 398.801)"/><ellipse class="c" cx="2.573" cy="2.577" rx="2.573" ry="2.577" transform="translate(4350.3 398.801)"/><ellipse class="c" cx="2.573" cy="2.577" rx="2.573" ry="2.577" transform="translate(4365.771 398.801)"/><ellipse class="c" cx="2.573" cy="2.577" rx="2.573" ry="2.577" transform="translate(4288.418 415.528)"/><ellipse class="c" cx="2.573" cy="2.577" rx="2.573" ry="2.577" transform="translate(4303.888 415.528)"/><ellipse class="c" cx="2.573" cy="2.577" rx="2.573" ry="2.577" transform="translate(4319.359 415.528)"/><ellipse class="c" cx="2.573" cy="2.577" rx="2.573" ry="2.577" transform="translate(4334.829 415.528)"/><ellipse class="c" cx="2.573" cy="2.577" rx="2.573" ry="2.577" transform="translate(4350.3 415.528)"/><ellipse class="c" cx="2.573" cy="2.577" rx="2.573" ry="2.577" transform="translate(4365.771 415.528)"/><ellipse class="c" cx="2.573" cy="2.577" rx="2.573" ry="2.577" transform="translate(4193.916 329.679)"/><ellipse class="c" cx="2.573" cy="2.577" rx="2.573" ry="2.577" transform="translate(4209.387 329.679)"/><ellipse class="c" cx="2.573" cy="2.577" rx="2.573" ry="2.577" transform="translate(4224.857 329.679)"/><ellipse class="c" cx="2.573" cy="2.577" rx="2.573" ry="2.577" transform="translate(4240.328 329.679)"/><ellipse class="c" cx="2.573" cy="2.577" rx="2.573" ry="2.577" transform="translate(4255.798 329.679)"/><ellipse class="c" cx="2.573" cy="2.577" rx="2.573" ry="2.577" transform="translate(4271.269 329.679)"/><ellipse class="c" cx="2.573" cy="2.577" rx="2.573" ry="2.577" transform="translate(4193.916 346.827)"/><ellipse class="c" cx="2.573" cy="2.577" rx="2.573" ry="2.577" transform="translate(4209.387 346.827)"/><ellipse class="c" cx="2.573" cy="2.577" rx="2.573" ry="2.577" transform="translate(4224.857 346.827)"/><ellipse class="c" cx="2.573" cy="2.577" rx="2.573" ry="2.577" transform="translate(4240.328 346.827)"/><ellipse class="c" cx="2.573" cy="2.577" rx="2.573" ry="2.577" transform="translate(4255.798 346.827)"/><ellipse class="c" cx="2.573" cy="2.577" rx="2.573" ry="2.577" transform="translate(4271.269 346.827)"/><ellipse class="c" cx="2.573" cy="2.577" rx="2.573" ry="2.577" transform="translate(4193.916 365.236)"/><ellipse class="c" cx="2.573" cy="2.577" rx="2.573" ry="2.577" transform="translate(4209.387 365.236)"/><ellipse class="c" cx="2.573" cy="2.577" rx="2.573" ry="2.577" transform="translate(4224.857 365.236)"/><ellipse class="c" cx="2.573" cy="2.577" rx="2.573" ry="2.577" transform="translate(4240.328 365.236)"/><ellipse class="c" cx="2.573" cy="2.577" rx="2.573" ry="2.577" transform="translate(4255.798 365.236)"/><ellipse class="c" cx="2.573" cy="2.577" rx="2.573" ry="2.577" transform="translate(4271.269 365.236)"/><ellipse class="c" cx="2.573" cy="2.577" rx="2.573" ry="2.577" transform="translate(4193.916 382.073)"/><ellipse class="c" cx="2.573" cy="2.577" rx="2.573" ry="2.577" transform="translate(4209.387 382.073)"/><ellipse class="c" cx="2.573" cy="2.577" rx="2.573" ry="2.577" transform="translate(4224.857 382.073)"/><ellipse class="c" cx="2.573" cy="2.577" rx="2.573" ry="2.577" transform="translate(4240.328 382.073)"/><ellipse class="c" cx="2.573" cy="2.577" rx="2.573" ry="2.577" transform="translate(4255.798 382.073)"/><ellipse class="c" cx="2.573" cy="2.577" rx="2.573" ry="2.577" transform="translate(4271.269 382.073)"/><ellipse class="c" cx="2.573" cy="2.577" rx="2.573" ry="2.577" transform="translate(4193.916 398.801)"/><ellipse class="c" cx="2.573" cy="2.577" rx="2.573" ry="2.577" transform="translate(4209.387 398.801)"/><ellipse class="c" cx="2.573" cy="2.577" rx="2.573" ry="2.577" transform="translate(4224.857 398.801)"/><ellipse class="c" cx="2.573" cy="2.577" rx="2.573" ry="2.577" transform="translate(4240.328 398.801)"/><ellipse class="c" cx="2.573" cy="2.577" rx="2.573" ry="2.577" transform="translate(4255.798 398.801)"/><ellipse class="c" cx="2.573" cy="2.577" rx="2.573" ry="2.577" transform="translate(4271.269 398.801)"/><ellipse class="c" cx="2.573" cy="2.577" rx="2.573" ry="2.577" transform="translate(4193.916 415.528)"/><ellipse class="c" cx="2.573" cy="2.577" rx="2.573" ry="2.577" transform="translate(4209.387 415.528)"/><ellipse class="c" cx="2.573" cy="2.577" rx="2.573" ry="2.577" transform="translate(4224.857 415.528)"/><ellipse class="c" cx="2.573" cy="2.577" rx="2.573" ry="2.577" transform="translate(4240.328 415.528)"/><ellipse class="c" cx="2.573" cy="2.577" rx="2.573" ry="2.577" transform="translate(4255.798 415.528)"/><ellipse class="c" cx="2.573" cy="2.577" rx="2.573" ry="2.577" transform="translate(4271.269 415.528)"/><ellipse class="c" cx="2.573" cy="2.577" rx="2.573" ry="2.577" transform="translate(4288.418 226.681)"/><ellipse class="c" cx="2.573" cy="2.577" rx="2.573" ry="2.577" transform="translate(4303.888 226.681)"/><ellipse class="c" cx="2.573" cy="2.577" rx="2.573" ry="2.577" transform="translate(4319.359 226.681)"/><ellipse class="c" cx="2.573" cy="2.577" rx="2.573" ry="2.577" transform="translate(4334.829 226.681)"/><ellipse class="c" cx="2.573" cy="2.577" rx="2.573" ry="2.577" transform="translate(4350.3 226.681)"/><ellipse class="c" cx="2.573" cy="2.577" rx="2.573" ry="2.577" transform="translate(4365.771 226.681)"/><ellipse class="c" cx="2.573" cy="2.577" rx="2.573" ry="2.577" transform="translate(4288.418 243.83)"/><ellipse class="c" cx="2.573" cy="2.577" rx="2.573" ry="2.577" transform="translate(4303.888 243.83)"/><ellipse class="c" cx="2.573" cy="2.577" rx="2.573" ry="2.577" transform="translate(4319.359 243.83)"/><ellipse class="c" cx="2.573" cy="2.577" rx="2.573" ry="2.577" transform="translate(4334.829 243.83)"/><ellipse class="c" cx="2.573" cy="2.577" rx="2.573" ry="2.577" transform="translate(4350.3 243.83)"/><ellipse class="c" cx="2.573" cy="2.577" rx="2.573" ry="2.577" transform="translate(4365.771 243.83)"/><ellipse class="c" cx="2.573" cy="2.577" rx="2.573" ry="2.577" transform="translate(4288.418 262.239)"/><ellipse class="c" cx="2.573" cy="2.577" rx="2.573" ry="2.577" transform="translate(4303.888 262.239)"/><ellipse class="c" cx="2.573" cy="2.577" rx="2.573" ry="2.577" transform="translate(4319.359 262.239)"/><ellipse class="c" cx="2.573" cy="2.577" rx="2.573" ry="2.577" transform="translate(4334.829 262.239)"/><ellipse class="c" cx="2.573" cy="2.577" rx="2.573" ry="2.577" transform="translate(4350.3 262.239)"/><ellipse class="c" cx="2.573" cy="2.577" rx="2.573" ry="2.577" transform="translate(4365.771 262.239)"/><ellipse class="c" cx="2.573" cy="2.577" rx="2.573" ry="2.577" transform="translate(4288.418 279.076)"/><ellipse class="c" cx="2.573" cy="2.577" rx="2.573" ry="2.577" transform="translate(4303.888 279.076)"/><ellipse class="c" cx="2.573" cy="2.577" rx="2.573" ry="2.577" transform="translate(4319.359 279.076)"/><ellipse class="c" cx="2.573" cy="2.577" rx="2.573" ry="2.577" transform="translate(4334.829 279.076)"/><ellipse class="c" cx="2.573" cy="2.577" rx="2.573" ry="2.577" transform="translate(4350.3 279.076)"/><ellipse class="c" cx="2.573" cy="2.577" rx="2.573" ry="2.577" transform="translate(4365.771 279.076)"/><ellipse class="c" cx="2.573" cy="2.577" rx="2.573" ry="2.577" transform="translate(4288.418 295.803)"/><ellipse class="c" cx="2.573" cy="2.577" rx="2.573" ry="2.577" transform="translate(4303.888 295.803)"/><ellipse class="c" cx="2.573" cy="2.577" rx="2.573" ry="2.577" transform="translate(4319.359 295.803)"/><ellipse class="c" cx="2.573" cy="2.577" rx="2.573" ry="2.577" transform="translate(4334.829 295.803)"/><ellipse class="c" cx="2.573" cy="2.577" rx="2.573" ry="2.577" transform="translate(4350.3 295.803)"/><ellipse class="c" cx="2.573" cy="2.577" rx="2.573" ry="2.577" transform="translate(4365.771 295.803)"/><ellipse class="c" cx="2.573" cy="2.577" rx="2.573" ry="2.577" transform="translate(4288.418 312.531)"/><ellipse class="c" cx="2.573" cy="2.577" rx="2.573" ry="2.577" transform="translate(4303.888 312.531)"/><ellipse class="c" cx="2.573" cy="2.577" rx="2.573" ry="2.577" transform="translate(4319.359 312.531)"/><ellipse class="c" cx="2.62" cy="2.624" rx="2.62" ry="2.624" transform="translate(4334.829 312.531)"/><ellipse class="c" cx="2.573" cy="2.577" rx="2.573" ry="2.577" transform="translate(4350.3 312.531)"/><ellipse class="c" cx="2.573" cy="2.577" rx="2.573" ry="2.577" transform="translate(4365.771 312.531)"/><ellipse class="c" cx="2.573" cy="2.577" rx="2.573" ry="2.577" transform="translate(4193.916 226.681)"/><ellipse class="c" cx="2.573" cy="2.577" rx="2.573" ry="2.577" transform="translate(4209.387 226.681)"/><ellipse class="c" cx="2.573" cy="2.577" rx="2.573" ry="2.577" transform="translate(4224.857 226.681)"/><ellipse class="c" cx="2.573" cy="2.577" rx="2.573" ry="2.577" transform="translate(4240.328 226.681)"/><ellipse class="c" cx="2.573" cy="2.577" rx="2.573" ry="2.577" transform="translate(4255.798 226.681)"/><ellipse class="c" cx="2.573" cy="2.577" rx="2.573" ry="2.577" transform="translate(4271.269 226.681)"/><ellipse class="c" cx="2.573" cy="2.577" rx="2.573" ry="2.577" transform="translate(4193.916 243.83)"/><ellipse class="c" cx="2.573" cy="2.577" rx="2.573" ry="2.577" transform="translate(4209.387 243.83)"/><ellipse class="c" cx="2.573" cy="2.577" rx="2.573" ry="2.577" transform="translate(4224.857 243.83)"/><ellipse class="c" cx="2.573" cy="2.577" rx="2.573" ry="2.577" transform="translate(4240.328 243.83)"/><ellipse class="c" cx="2.573" cy="2.577" rx="2.573" ry="2.577" transform="translate(4255.798 243.83)"/><ellipse class="c" cx="2.573" cy="2.577" rx="2.573" ry="2.577" transform="translate(4271.269 243.83)"/><ellipse class="c" cx="2.573" cy="2.577" rx="2.573" ry="2.577" transform="translate(4193.916 262.239)"/><ellipse class="c" cx="2.573" cy="2.577" rx="2.573" ry="2.577" transform="translate(4209.387 262.239)"/><ellipse class="c" cx="2.573" cy="2.577" rx="2.573" ry="2.577" transform="translate(4224.857 262.239)"/><ellipse class="c" cx="2.573" cy="2.577" rx="2.573" ry="2.577" transform="translate(4240.328 262.239)"/><ellipse class="c" cx="2.573" cy="2.577" rx="2.573" ry="2.577" transform="translate(4255.798 262.239)"/><ellipse class="c" cx="2.573" cy="2.577" rx="2.573" ry="2.577" transform="translate(4271.269 262.239)"/><ellipse class="c" cx="2.573" cy="2.577" rx="2.573" ry="2.577" transform="translate(4193.916 279.076)"/><ellipse class="c" cx="2.573" cy="2.577" rx="2.573" ry="2.577" transform="translate(4209.387 279.076)"/><ellipse class="c" cx="2.573" cy="2.577" rx="2.573" ry="2.577" transform="translate(4224.857 279.076)"/><ellipse class="c" cx="2.573" cy="2.577" rx="2.573" ry="2.577" transform="translate(4240.328 279.076)"/><ellipse class="c" cx="2.573" cy="2.577" rx="2.573" ry="2.577" transform="translate(4255.798 279.076)"/><ellipse class="c" cx="2.573" cy="2.577" rx="2.573" ry="2.577" transform="translate(4271.269 279.076)"/><ellipse class="c" cx="2.573" cy="2.577" rx="2.573" ry="2.577" transform="translate(4193.916 295.803)"/><ellipse class="c" cx="2.573" cy="2.577" rx="2.573" ry="2.577" transform="translate(4209.387 295.803)"/><ellipse class="c" cx="2.573" cy="2.577" rx="2.573" ry="2.577" transform="translate(4224.857 295.803)"/><ellipse class="c" cx="2.573" cy="2.577" rx="2.573" ry="2.577" transform="translate(4240.328 295.803)"/><ellipse class="c" cx="2.573" cy="2.577" rx="2.573" ry="2.577" transform="translate(4255.798 295.803)"/><ellipse class="c" cx="2.573" cy="2.577" rx="2.573" ry="2.577" transform="translate(4271.269 295.803)"/><ellipse class="c" cx="2.573" cy="2.577" rx="2.573" ry="2.577" transform="translate(4193.916 312.531)"/><ellipse class="c" cx="2.573" cy="2.577" rx="2.573" ry="2.577" transform="translate(4209.387 312.531)"/><ellipse class="c" cx="2.573" cy="2.577" rx="2.573" ry="2.577" transform="translate(4224.857 312.531)"/><ellipse class="c" cx="2.573" cy="2.577" rx="2.573" ry="2.577" transform="translate(4240.328 312.531)"/><ellipse class="c" cx="2.573" cy="2.577" rx="2.573" ry="2.577" transform="translate(4255.798 312.531)"/><ellipse class="c" cx="2.573" cy="2.577" rx="2.573" ry="2.577" transform="translate(4271.269 312.531)"/></g></g></svg>